<svg id="Capa_1" data-name="Capa 1" xmlns="http://www.w3.org/2000/svg" viewBox="0 0 1200 266"><defs><style>.cls-1{fill:#666664;}.cls-2{fill:#e01f1c;}.cls-3{fill:#48b900;}.cls-4{fill:#0060a7;}.cls-5{fill:#ffce00;}.cls-6{fill:#76b629;}.cls-7{fill:#676765;}.cls-8{fill:#6a6a69;}.cls-9{fill:#6a6a68;}.cls-10{fill:#d3d3d2;}.cls-11{fill:#fefefe;}.cls-12{fill:#fefefd;}.cls-13{fill:#f1f7f1;}.cls-14{fill:#fdfdfd;}.cls-15{fill:#0069b5;}.cls-16{fill:#ff3b46;}.cls-17{fill:#fff;}</style></defs><title>logo-integra</title><path class="cls-1" d="M547.57,111.44c.88,24.65.58,49.3.7,73.95v15.36a4.05,4.05,0,0,1-3.41,4.53,39.86,39.86,0,0,1-17.12,0c-2.47-.53-3.24-2.24-3.24-4.71V129.62c0-14.53,0-29-.35-43.54a8.7,8.7,0,0,1,7.34-9.88,8.32,8.32,0,0,1,2.54,0c5.48,0,11-.47,16.42,0a14.19,14.19,0,0,1,12.12,7.29c4.82,8.48,9.35,17.12,14,25.71,10.36,19.18,20.83,38.31,29.95,58.13l.29.47V153.33c0-11.06-.29-22.06-.41-33.12V80.73c0-2.24.76-3.83,2.88-4.36a36.24,36.24,0,0,1,17.65-.29,3.81,3.81,0,0,1,2.94,4.3c0,19.12.36,38.18.48,57.24v57.54a8.89,8.89,0,0,1-7.55,10.05,9.11,9.11,0,0,1-1.81.07c-4.24.35-8.53,0-12.83,0a14.7,14.7,0,0,1-13.35-7.71c-4.82-7.94-9-16.29-13.3-24.47-10.29-19.48-21.35-38.48-30.65-58.37-1.12-2.41-2.12-4.88-3.18-7.29a2.93,2.93,0,0,0-.58-.53h0A12.6,12.6,0,0,0,547.57,111.44Z"/><path class="cls-1" d="M952.7,164.1v25.24a8.13,8.13,0,0,1-6.53,9.41,101.38,101.38,0,0,1-56.84,4.76A54.36,54.36,0,0,1,846,162.92a81.92,81.92,0,0,1,1.41-50.66A57.73,57.73,0,0,1,894,73.08a83.66,83.66,0,0,1,45.6,3.41c12.06,4.53,12.88,6.59,12.82,18.24a39.85,39.85,0,0,1-.47,5.88q-.94,5.36-5.88,2.83A95.69,95.69,0,0,0,932,96.79a57.53,57.53,0,0,0-30.19-2.88,37.17,37.17,0,0,0-29.94,27.94,58.84,58.84,0,0,0,.88,36.13,35.77,35.77,0,0,0,35,25.3,38,38,0,0,0,16.59-2.95,2.81,2.81,0,0,0,2-3.05V151.8c0-1.77-.47-2.35-2.29-2.29H904c-3.7,0-4.65-.71-5.35-4.36a32.79,32.79,0,0,1,0-11.77,3.88,3.88,0,0,1,4-3.77h43.49c3.7,0,5.88,3.29,6.17,8s0,9.71,0,14.53v12.06Z"/><path class="cls-1" d="M969.05,173.33c0-10.88-.41-21.71-.47-32.59V82.38c0-6.53,2.35-8.89,8.89-8.95h37a64.26,64.26,0,0,1,18.89,2.65c17.65,5.53,25.18,19,23.88,36.48A32,32,0,0,1,1035.18,142l-2.06.89c10.06,5.29,14.48,14.47,18.48,24s7.94,18.18,11.76,27.42c2.83,7,1.53,8.82-5.88,9.06h-14.24a7,7,0,0,1-7-4.94c-4.53-11.42-8.82-23-14.06-34.13a60,60,0,0,0-3.24-5.88,17.11,17.11,0,0,0-15.47-8.24c-2.59,0-5.88-1.17-7.65.53s-.47,4.89-.41,7.42c0,8,.41,16.06,0,24.06-1.77-1-1.06-2.71-1.18-4.12,0-3.35,0-3.53-3.59-3.59H973A5.34,5.34,0,0,1,969.05,173.33Z"/><path class="cls-1" d="M1154.38,172.33h-45.19a3.12,3.12,0,0,0-3.52,2.66v0c-2.29,7.59-4.76,15.12-7.06,22.71a5.41,5.41,0,0,1-4.76,4.24,63.29,63.29,0,0,1-16.95,0c-3.53-.53-4.58-2.06-3.76-5.54,2.06-8.23,5.18-16.12,7.88-24.12,10.53-31.36,21.24-62.66,31.66-94.13a8.48,8.48,0,0,1,8.59-6.77q10.17-.34,20.29,0a8,8,0,0,1,8.12,6.24c9.36,27.06,18.95,54,28.48,81,1.53,4.3,3,8.65,4.47,12.95a4.3,4.3,0,0,1-3.53.94h-21A10.06,10.06,0,0,1,1154.38,172.33Z"/><path class="cls-1" d="M795.85,204.1H765.43c-5.89,0-8.53-2.47-8.59-8.47s0-13.65,0-20.53V135.68c0-17.18,0-34.36-.53-51.54a8.17,8.17,0,0,1,6.59-9.5,8,8,0,0,1,2.76,0H826.5c3.59,0,4.41.65,5.06,4.24a36.33,36.33,0,0,1,0,12.82,4,4,0,0,1-4.19,3.68l-.28,0c-14,0-28,0-42,.29-2,0-2.59.42-2.53,2.53V124.5c0,2.24.76,2.65,2.76,2.59H820.2a4.06,4.06,0,0,1,4.57,3.48.88.88,0,0,1,0,.17,34.25,34.25,0,0,1,.3,11.47c-.65,4.53-1.53,5.18-5.89,5.24H786.31c-2.58,0-3.41.53-3.35,3.23v30.71c0,1.83.35,2.47,2.35,2.47h42.54a4,4,0,0,1,4.61,3.28,2.17,2.17,0,0,1,0,.25,33.83,33.83,0,0,1,0,13.3c-.59,3.24-1.59,4-4.83,4H795.85Z"/><path class="cls-2" d="M444.61,42.72A3.77,3.77,0,0,0,448,41.37a22.3,22.3,0,0,1,9.59-6.88c5.88-1.83,9.35-7.36,14.3-10.77,1.82-1.24,3.06-3.47,5.88-3.36.94,0,.59-.88.71-1.47.29-1.58,1.35-3.35,2.76-3.06s4,.83,4.65,3.06c0,.71,0,1.47.88,1.89A56.58,56.58,0,0,1,497.5,29.9a5.76,5.76,0,0,1,1.82,2.35c2.24,4.59,2.18,4.82-2.29,7.18a27.42,27.42,0,0,0-5.89,5.12,37.16,37.16,0,0,1-11.76,10.12,1.16,1.16,0,0,0-.65.41c-5.88,7.35-15,10.18-23.53,13.76-5.06,2.12-9.42,5.36-14.42,7.48a3.66,3.66,0,0,1-2.59.64A4.35,4.35,0,0,0,434,79.67a66,66,0,0,1-18.6,9.18,16.54,16.54,0,0,1-2.88.59,12.92,12.92,0,0,1-4.29-1.59c-1.89-.83-3.24-.94-3.71,1.53a1.65,1.65,0,0,1-1,1.23,35.9,35.9,0,0,0-8.82,2.83c-10.48,4.23-21.83,5.88-32,11-6.41,0-11.77,4.47-18.59,2.94a7.22,7.22,0,0,0-4.47,1,35.35,35.35,0,0,1-10.18,1.88q-1.77,0-1.59-1.41a31.92,31.92,0,0,0-1.35-9.71,4.77,4.77,0,0,1,.64-2.88,6.83,6.83,0,0,0-1.11-7.82,4.7,4.7,0,0,1,.94-6.59,3.64,3.64,0,0,1,.35-.24,11.39,11.39,0,0,1,6.3-1.53,14.84,14.84,0,0,0,10.23-1.94,2.9,2.9,0,0,1,1.89-.35,23.53,23.53,0,0,0,11.76-3.24,16.08,16.08,0,0,1,8.36-1.88h7.41a7.47,7.47,0,0,0,4.18-1.53,74.61,74.61,0,0,1,8.88-3.77c2.94-1.29,6.47-1.53,8.65-4.41.35-.47,1-.41,1.53-.35a20,20,0,0,0,9-1.83,12.13,12.13,0,0,0,3.24-1.94,32,32,0,0,1,13.47-6.23,27.53,27.53,0,0,0,10.47-3.18,11.1,11.1,0,0,1,7.77-1.71c3.41,0,3.41,0,3.59-3.06A1.64,1.64,0,0,1,444.61,42.72Z"/><path class="cls-3" d="M433.37,79.67c0-2.53,1.88-3.12,4-3.18h3.24c3.11.89,6.64-.35,9.47,2,.47.41,1.06,0,1.41-.41,1.24-1.88,2.88-1.35,4.59-.88s3.88.88,5.88,1.47a3.59,3.59,0,0,1,3.19,4,3.5,3.5,0,0,1-.42,1.34A20,20,0,0,0,463.14,93a4.82,4.82,0,0,1-1.71,5.12,1.49,1.49,0,0,0-.64,1.42,60.13,60.13,0,0,1-5.89,26.76,20,20,0,0,0-1.35,9.12v2.12c-3.47,3.41-1.94,8.24-3.53,12.24a77.07,77.07,0,0,0-5.12,12.94c-1.06,5.89-5,10.53-5.41,16.54a2.2,2.2,0,0,1-.41,1,28.28,28.28,0,0,0-5.24,10.59c-.35,2-2.35,3.7-3.12,5.88s-3.82,5-3.41,8.41c0,1.06,0,2.41-1.59,2a60.33,60.33,0,0,0-17.18-.53,78.24,78.24,0,0,1-15.71-2.76,17.1,17.1,0,0,1,3.42-5.3,3.65,3.65,0,0,0,1.47-3.12,1.94,1.94,0,0,1,.35-1.23A95,95,0,0,0,407,173.8a1.74,1.74,0,0,0,0-1.06,14.35,14.35,0,0,1,4.06-10.7,47.8,47.8,0,0,0,3.77-8.65c2.29-5.41,1.53-11.77,5.88-16.53,1.53-1.53.65-3.89.71-5.89a4.37,4.37,0,0,1,1.58-4.12c.95-.7.89-1.7.89-2.76V115c1.35-2.47.94-5.88,3.76-7.53.83-.53.41-1.88.53-2.82a8.46,8.46,0,0,1,2.65-4c1.12-1.29,1.65-2.35-.35-3.29a1.55,1.55,0,0,1-.83-1.59,34.41,34.41,0,0,1,1.65-12.94A6.41,6.41,0,0,1,433.37,79.67Z"/><path class="cls-1" d="M680.53,175V164.86c0-21.83-.35-43.65-.41-65.48,0-2.06-.59-2.59-2.59-2.53H648.7a3.42,3.42,0,0,1-3.65-2.71,33.8,33.8,0,0,1,0-16.24c.59-2.29,2.18-2.82,4.36-2.82l68.3-.29h19.48a4.17,4.17,0,0,1,4.73,3.53,1.43,1.43,0,0,1,0,.29,39.05,39.05,0,0,1,0,13.89c-.53,3.17-1.76,4-5.06,4h-28c-1.94,0-2.41.48-2.41,2.42,0,24.18.35,48.42.53,72.6v3.29a3.7,3.7,0,0,1-2.83.89H683.35A3.41,3.41,0,0,1,680.53,175Z"/><path class="cls-4" d="M430.37,96.2c3.65,2,3.65,2,.82,5.36-.7.82-2,1.29-2.12,2.64A26.37,26.37,0,0,0,424.19,115h0c-3,4.65-4.71,10.06-8.12,14.47a181.47,181.47,0,0,0-10.88,14.95c-3.24,5.23-7.71,10-7.77,16.76,0,1.36-1.17,1.48-2,1.89a19.8,19.8,0,0,0-10.06,13.18c-.41,1.47-1.65,2.17-2.47,3.17a30.45,30.45,0,0,0-5.24,7.53,71.68,71.68,0,0,1-10.35,15.71c-.82,1.06-1.59,1.18-3,.65a51.33,51.33,0,0,0-16.48-4.12H346.3c-3.71-3.82-8.95-3.82-13.42-5.88a7.61,7.61,0,0,0-1.53-.71,30.33,30.33,0,0,0,5.88-5.88,4.69,4.69,0,0,1,3.59-2.06c1.65,0,2.65-1.59,3.42-2.82A134.29,134.29,0,0,1,360.06,163a37.32,37.32,0,0,1,9.06-8.89c1.12-.58,1.41-1.76,1.65-3.17a14.16,14.16,0,0,1,5.24-8.65,4.78,4.78,0,0,0,1.88-4.53,5.38,5.38,0,0,1,1.35-4.3c2.77-3.47,4.94-7.41,7.42-11.12a60.83,60.83,0,0,0,5.88-11,71,71,0,0,1,5.06-8.12,64.49,64.49,0,0,0,4.18-9.65c.41-.94,1.58-1.53,1.47-2.76,1.29-4.94,1.29-4.94,5.88-2.94l3,1.35A65.4,65.4,0,0,0,427,94.44C428.13,94.73,429.72,94.85,430.37,96.2Z"/><path class="cls-1" d="M482.5,176.27v-7.11q0-43.95-.59-87.9a3.93,3.93,0,0,1,3.34-4.46h.07a45.3,45.3,0,0,1,19.53,0,4.06,4.06,0,0,1,3.5,4.55l0,.15V127.8c0,16.12,0,32.3.36,48.42a3.94,3.94,0,0,1-3.06.88H485.38A4.47,4.47,0,0,1,482.5,176.27Z"/><path class="cls-5" d="M444.61,42.72a8.45,8.45,0,0,0,0,3.47c.35,1.77-.53,2.94-2.18,2.53a25.6,25.6,0,0,0-10.12.71c0-1.41-.82-1.82-1.94-1.12a19.51,19.51,0,0,1-14.65,1.18,20.12,20.12,0,0,0-8.18,0c-2.06.47-2.35-.36-2.18-2.06a56.31,56.31,0,0,0,.53-9.53c0-1.83-.88-3.65-.82-5.3,0-3.65-1.47-7.76,1.77-10.94,1.05-1.06.58-1.94,0-2.94a8.84,8.84,0,0,1-1.77-5.06c0-1.47.35-2.18,1.88-2.24a6.61,6.61,0,0,1,3,0,11.77,11.77,0,0,0,8.71-.41,14.24,14.24,0,0,1,9.3.82,3.53,3.53,0,0,0,2.88,0,17.74,17.74,0,0,1,9.06-.41h1.35c4,0,4.24,0,3.47,3.94a31.07,31.07,0,0,0,0,8.06A47.08,47.08,0,0,1,444,34.54,17.59,17.59,0,0,0,444.61,42.72Z"/><path class="cls-6" d="M1154.38,172.33h28.24c3,7.89,5.88,15.77,8.29,23.89,1,3.82,0,5.35-3.82,5.88a96.16,96.16,0,0,1-18.89,0,5.45,5.45,0,0,1-5.11-4.41C1160.32,189.16,1157.32,180.75,1154.38,172.33Z"/><path class="cls-5" d="M482.5,176.27h26.12v25.42a3.78,3.78,0,0,1-3.3,4.06,47,47,0,0,1-19.47,0,4,4,0,0,1-3.73-4.36,1.79,1.79,0,0,1,0-.23C482.5,192.87,482.44,184.57,482.5,176.27Z"/><path class="cls-4" d="M680.53,175h26.18V200.4a3.76,3.76,0,0,1-3.45,4h-.14a52.13,52.13,0,0,1-19.29,0,4.06,4.06,0,0,1-3.67-4.42.88.88,0,0,1,0-.17C680.53,191.45,680.53,183.28,680.53,175Z"/><path class="cls-2" d="M969.05,173.33h23.54c1.88,0,2.58.53,2.53,2.47a21.52,21.52,0,0,0,0,5.89v17a3.36,3.36,0,0,1-2.83,3.47,45.29,45.29,0,0,1-20.65,0,3.11,3.11,0,0,1-2.82-3.18C969.41,190.69,968.58,182,969.05,173.33Z"/><path class="cls-1" d="M871.45,225.7v-7.36c0-2.35.41-3.29,2.53-3.23s2.47,1.52,2.35,3.29a79.28,79.28,0,0,0,.88,16.65,74.07,74.07,0,0,1,0,8.94,2,2,0,0,1-1.29,2.18c-1,.35-2.06.41-2.59-.71s-1.24-.64-1.94,0a11.75,11.75,0,0,1-9.18,1.59,10.82,10.82,0,0,1-7.94-11.12,11.18,11.18,0,0,1,8.35-11.12A21.48,21.48,0,0,1,871.45,225.7Z"/><path class="cls-1" d="M444.61,229V220.4c0-1.47.64-2.76,2.47-2.65s2.47,1.3,2.35,3a81.57,81.57,0,0,0,.88,16.89,74.07,74.07,0,0,1,0,8.94,2.24,2.24,0,0,1-1.59,2.3,1.72,1.72,0,0,1-2.3-.72l-.05-.11c-.59-1.06-1.12-.64-1.94,0a11.41,11.41,0,0,1-14.12-1.17,13,13,0,0,1-.59-15.54,8.06,8.06,0,0,1,7.89-3.94C439.9,227.46,442.49,226.28,444.61,229Z"/><path class="cls-1" d="M404,228.7v-7.65c0-2.47.53-3.12,2.36-3.06s2.64,1.35,2.47,3.18a78.69,78.69,0,0,0,.88,16.65,59.25,59.25,0,0,1,0,9.23,1.94,1.94,0,0,1-1.41,2.06,1.65,1.65,0,0,1-2.27-.54l-.09-.16c-.64-1.3-1.23-.77-2.06,0a11,11,0,0,1-14.64-1.89,13.11,13.11,0,0,1,1-16.18,7.27,7.27,0,0,1,5.88-2.64C398.72,227.64,401.54,226.75,404,228.7Z"/><path class="cls-1" d="M339.18,245a18.89,18.89,0,0,0,.29,4.18,2.12,2.12,0,0,1-1.87,2.34h-.25c-1.23,0-1.7-.94-1.76-2.06a76,76,0,0,1,2.35-26.77c.41-1.41,1.35-2.11,2.65-1.7A34.54,34.54,0,0,1,352,225.17a7.75,7.75,0,0,1,2.55,10.68,7.9,7.9,0,0,1-1.72,2,3.53,3.53,0,0,0-1.12,4.41c.88,2.41,1.53,4.88,2.29,7.29s0,2.77-1.47,3.3-2.29-.47-2.65-1.94c-.76-2.77-1.7-5.53-2.41-8.36-.35-1.47-1-2-2.47-1.76h-1.06l-4.06-.41v.35A20.5,20.5,0,0,0,339.18,245Z"/><path class="cls-1" d="M360.06,242.76c-.64-9.59,5.89-15.65,14.42-13.53a12.32,12.32,0,0,1,7.29,6.23c1.41,2.3,0,4.59-2.82,5.24a43,43,0,0,0-11.77,3.23c-2.35,1.18-2.47,1.65-.41,3.3A15.25,15.25,0,0,0,379,249.88c1.76,0,4.29-1.59,4.7,1.29s-2.41,2.18-3.94,2.41a18.46,18.46,0,0,1-17.65-5.53C360.83,246.17,359.3,244.7,360.06,242.76Z"/><path class="cls-1" d="M471.91,253.29a16.08,16.08,0,0,1-13.48-5.88c-.88-1.18-2.76-1.42-2.76-3.42a15.76,15.76,0,0,1,3.82-13.06,11.24,11.24,0,0,1,15.85,1.19l0,0,.94,1c2.94,3.29,2.06,5.88-2.3,7.06A43.61,43.61,0,0,0,463.79,243c-.89.47-2.42.53-2.47,1.77s1.11,1.82,2.05,2.41a15.78,15.78,0,0,0,11,2.18l2.17-.42c1.42-.29,2.83-.41,3.12,1.53s-1.18,2.18-2.59,2.36A21.93,21.93,0,0,1,471.91,253.29Z"/><path class="cls-1" d="M1069.42,228.17c-1.12,2.7,0,5.41.83,8.23a64.9,64.9,0,0,0,1.11,9.42,1.64,1.64,0,0,1-.83,2.17l-.17.06c-1.11.41-2.17.3-2.64-.7s-1.77-.77-2.71,0a11.42,11.42,0,0,1-15.77-3.44,11.72,11.72,0,0,1-1.06-2.09,11.07,11.07,0,0,1,7.4-13.79l.84-.22c2.35,0,4.71-1.7,7.18,0,.88.59,1-.7,1.41-1.23a2.3,2.3,0,0,1,2.94-.71A2.18,2.18,0,0,1,1069.42,228.17Z"/><path class="cls-1" d="M939.16,250.29a16.36,16.36,0,0,1-13.94-5.89c-.88-1.17-2.76-1.41-2.71-3.47a16.32,16.32,0,0,1,3.89-13.06,11.35,11.35,0,0,1,15.82,1.36,13.32,13.32,0,0,1,1.3,1.41c2.41,2.88,1.53,5.88-2.12,6.47a55,55,0,0,0-9.77,2.53c-1.29.53-3.35.7-3.41,2.12s1.77,2.47,3.18,3.17a17.63,17.63,0,0,0,11.77,1.12c1.58-.35,3.05-.47,3.41,1.47s-1.53,2.12-2.89,2.36A36,36,0,0,1,939.16,250.29Z"/><path class="cls-1" d="M573.81,251.82A11.77,11.77,0,0,1,563,241.4a11.07,11.07,0,0,1,10.12-10.94c2.06,0,4.23-1.53,6.29,0,.53.41.65-.41.83-.76a2.47,2.47,0,0,1,3.23-1.32l.18.08c1.71.59,1.53,1.94,1.24,3.18a8.64,8.64,0,0,0,.47,5.88c1.47,3.77,0,7.94,1.7,11.77a1.53,1.53,0,0,1-1.09,1.86l-.08,0a2.07,2.07,0,0,1-2.65-.82c-.59-1.3-1.18-1.06-2.24-.42A11.78,11.78,0,0,1,573.81,251.82Z"/><path class="cls-1" d="M729.42,248.11a14.42,14.42,0,0,1-5.18,2.47,10.76,10.76,0,0,1-7.88-20,13,13,0,0,1,9.65-1c1,.41,1.06,0,1.35-.71a2.48,2.48,0,0,1,3.29-1.19l.24.13c1.41.53,1.41,1.83,1.06,3a9.11,9.11,0,0,0,.53,5.89c1.3,3.7,0,7.76,1.65,11.76a1.49,1.49,0,0,1-.83,1.83,2.29,2.29,0,0,1-2.58,0A9.82,9.82,0,0,1,729.42,248.11Z"/><path class="cls-1" d="M1163.56,249a16.69,16.69,0,0,1-14.59-5.88c-.89-1.12-2.59-1.41-2.59-3.47a16.38,16.38,0,0,1,3.59-12.71,11.18,11.18,0,0,1,15.29,0h0c1.59,1.65,3.83,3.18,2.94,5.88s-3.53,2.53-5.88,3a36.33,36.33,0,0,0-8.88,2.71c-2.53,1.18-2.65,1.59-.41,3.41a15.1,15.1,0,0,0,12.47,2.47c.65,0,1.23-.29,1.88-.35a2.1,2.1,0,0,1,2.53,1.83c.18,1.82-.7,1.88-1.94,2.05A23.81,23.81,0,0,1,1163.56,249Z"/><path class="cls-1" d="M808.61,239.23c1.18-3.36,1.83-7.53,5.89-9.12a13.09,13.09,0,0,1,9.88-1.12c1.18.47,1.18-.41,1.53-.94.76-1.47,2.06-1.35,3.29-.88a2,2,0,0,1,1.31,2.5,1.18,1.18,0,0,1-.07.2,8.75,8.75,0,0,0,.47,6.36c1.41,3.64,0,7.65,1.53,11.29a1.47,1.47,0,0,1-.87,1.89l-.19.05c-.88,0-2,.47-2.47-.47s-1.71-1.06-2.94-.35a11.42,11.42,0,0,1-17.36-9.41Z"/><path class="cls-1" d="M521.8,241.4a10.7,10.7,0,0,1,7.88-10.23c2.65-.41,5.35-2.06,8.18-.41.88.52,1-.42,1.23-.89a2.37,2.37,0,0,1,3.15-1.08l.15.08a2.17,2.17,0,0,1,1.36,2.76,1.34,1.34,0,0,1-.07.18,8.06,8.06,0,0,0,.41,5.89c1.42,3.7,0,7.76,1.65,11.76a1.65,1.65,0,0,1-.94,2.06c-.94.36-2.06.42-2.53-.41-1-2-2-.94-3.18-.29a11.29,11.29,0,0,1-17.29-9.42Z"/><path class="cls-1" d="M644.23,250.64c-9.24,0-14.36-3.41-16.41-10.65a17.05,17.05,0,0,1,7.53-19.65,12.35,12.35,0,0,1,13.65.83c.82.64,1.47,1.29.82,2.52s-1.59,1.3-2.77.89l-.76-.3a7.47,7.47,0,0,0-10,.59,12.84,12.84,0,0,0-4.65,13.42,9.36,9.36,0,0,0,8.3,7.47,9.61,9.61,0,0,0,9.88-2.06,2.77,2.77,0,0,1,3.88-.47,2.1,2.1,0,0,1,.47.47c1.12,1.59,0,2.94-1.11,4.06A12.6,12.6,0,0,1,644.23,250.64Z"/><path class="cls-1" d="M506.62,219.46l4.47.76c1.18,0,1.82.77,1.53,2.06a1.7,1.7,0,0,1-1.84,1.56,1.42,1.42,0,0,1-.57-.15,15.52,15.52,0,0,0-5.42-.64,2.4,2.4,0,0,0-2.59,1.65,2.35,2.35,0,0,0,1.65,2.58c2.12.95,4.3,1.59,6.42,2.47a10.61,10.61,0,0,1,6.88,11,11.76,11.76,0,0,1-13.33,10,7.27,7.27,0,0,1-.79-.14,14,14,0,0,1-7.83-5.18c-.82-1-1.35-2.17,0-3.11s2.18-.65,3,.58a5.23,5.23,0,0,0,1.12,1.18A8,8,0,0,0,513,241.52a5.06,5.06,0,0,0-1-5.59,14.26,14.26,0,0,0-5.88-3.94,7,7,0,0,1-2.06-.71c-4.59-1.58-5.88-3.53-5.88-6.82S501.56,219.52,506.62,219.46Z"/><path class="cls-1" d="M1092.54,237.23a10.46,10.46,0,0,1,0-1.12c0-2,0-4.18-1.82-5.35a6.63,6.63,0,0,0-6.53.52,2.42,2.42,0,0,0-1.47,2.83,74.3,74.3,0,0,1,0,10.12c0,1.7-.53,2.88-2.47,2.7s-2.3-1.47-2.18-3.05.35-3.83.35-5.89a9.55,9.55,0,0,0-1.11-5.29,14.87,14.87,0,0,1-.71-6.42,2.06,2.06,0,0,1,1.88-1.76,2,2,0,0,1,2.3,1.12c.82,2,2.06,1.59,3.65,1a11.05,11.05,0,0,1,5.88-.71,7.12,7.12,0,0,1,6.82,7.24,26.94,26.94,0,0,0,1,9.41,2.17,2.17,0,0,1-1.11,2.87l-.18.07a2.59,2.59,0,0,1-3.3-1.29A11.81,11.81,0,0,1,1092.54,237.23Z"/><path class="cls-1" d="M690.36,241.52v5.18c0,1.71-.47,2.76-2.24,2.71s-2.41-1.3-2.29-3,0-4.35,0-6.53a10.67,10.67,0,0,0-1.12-4.53,12.52,12.52,0,0,1-.41-6.94,2,2,0,0,1,2.44-1.42,2,2,0,0,1,1.32,1.13c1.06,1.94,2.12,1.7,3.71,1.06a14.18,14.18,0,0,1,3.47-.71,7.65,7.65,0,0,1,9.27,5.57,7.49,7.49,0,0,1,.14,3,19.1,19.1,0,0,0,.83,7.24c.53,1.53.53,3.23-1.36,3.82s-2.88-.7-3.53-2.18a13.37,13.37,0,0,1-.82-5.88v-3a4.12,4.12,0,0,0-3-4.65,7.49,7.49,0,0,0-6.59,1.89v7Z"/><path class="cls-1" d="M902.16,240v5.89c0,1.58-.71,2.47-2.3,2.35a2,2,0,0,1-2.22-1.75,1.94,1.94,0,0,1,.05-.72V238.7a9.3,9.3,0,0,0-1.12-4.53,12.35,12.35,0,0,1-.41-6.89c.41-2,3-2,4.17,0s1.47,1.3,2.77.89a14.65,14.65,0,0,1,4.47-1,7.47,7.47,0,0,1,8.75,5.93,7.71,7.71,0,0,1,.08,2.3,24.64,24.64,0,0,0,.94,8.06,2.41,2.41,0,0,1-1,3.26l-.35.16c-1.58.53-2.64-.48-3.35-1.71a14.53,14.53,0,0,1-.94-7.77c0-5.59-2.94-7.59-8-5.17a2.76,2.76,0,0,0-1.83,3.17v4.65Z"/><path class="cls-1" d="M1009.18,239.29v5.47c0,1.82-.47,2.7-2.3,2.65s-2.35-1.06-2.23-2.71,0-4.41,0-6.59a9.59,9.59,0,0,0-1.18-4.77,15,15,0,0,1-.53-6.76c0-.77.82-1.41,1.71-1.53a2.29,2.29,0,0,1,2.59,1.53c.64,1.53,1.47,1.41,2.7.82a12.2,12.2,0,0,1,5.06-.94,7.48,7.48,0,0,1,8.38,6.44,7.7,7.7,0,0,1,0,2.09,20.07,20.07,0,0,0,.82,7.47c.47,1.47.47,3.12-1.29,3.71s-2.95-.71-3.59-2.18a17.67,17.67,0,0,1-.65-7.88c0-2.24,0-4.24-2.53-5.24a7.49,7.49,0,0,0-6.71,1.3c-.76.47-.64,1.23-.64,1.94v5.18Z"/><path class="cls-1" d="M672.65,248.05a7.06,7.06,0,0,1-11.77-3.35,32.1,32.1,0,0,1-1.24-15.65c0-1.71,1.36-2.3,2.89-2.18s1.41,1.47,1.29,2.65a34.75,34.75,0,0,0,1,13c.41,1.36.77,3,2.53,3.24a4.55,4.55,0,0,0,4-2,12.93,12.93,0,0,0,2.3-8.24c0-1.59.35-3,2.47-2.71a1.66,1.66,0,0,1,1.82,2.12,74.57,74.57,0,0,0-.53,15.3c0,.88-.35,1.47-1.23,1.35s-2.36,0-2.65-1.29S673.35,248.82,672.65,248.05Z"/><path class="cls-1" d="M987.7,232.64v-5.89c0-1.82.36-3.82-2.47-4.11-.94,0-1.35-1.18-1.23-2.18s.58-1.88,1.41-1.71c3.23.65,6.29-1.06,9.47-.7a6.39,6.39,0,0,1,1.88.41c.94.35.94,1.23.77,2.06a2,2,0,0,1-2.06,1.35c-4.65,0-4.06,0-3.94,4.35s.47,9.65.47,14.48c0,2.12.82,2.76,2.64,2.82h2.48c1.35,0,1.76,1.18,1.64,2.41a1.75,1.75,0,0,1-1.7,1.83,1.57,1.57,0,0,1-.53-.06,91.61,91.61,0,0,1-12.65-2.06c-1.53-.41-2.53-1.18-2.18-2.88a2.13,2.13,0,0,1,2.49-1.68,2,2,0,0,1,.57.21c3,1.17,3.24,0,3-2.71A53.51,53.51,0,0,1,987.7,232.64Z"/><path class="cls-1" d="M760.19,242.64c2-4.65,3.94-9.06,5.89-13.59.64-1.88,1.7-2.53,3.41-1.94s1.41,2.17.82,3.47l-4.94,10.65a10.4,10.4,0,0,0-1.88,6.7,1.85,1.85,0,0,1-.53,1.48c-2.18,1.41-2.65,3.82-3.77,5.88-.59,1-1.12,1.7-2.35,1.18a1.89,1.89,0,0,1-1.31-2.32,1,1,0,0,1,.07-.21,11.77,11.77,0,0,0-1.23-11.77c-1.3-2.77-2.36-5.88-3.47-8.59-.53-1.24-.42-2.35,1-2.94a2.22,2.22,0,0,1,3,.91,1.9,1.9,0,0,1,.21.56c1.06,2.82,2.12,5.88,3.24,8.41A4.59,4.59,0,0,0,760.19,242.64Z"/><path class="cls-1" d="M600.58,250.58a11.41,11.41,0,0,1-9-3.53c-.94-1-1.7-2.06-.47-3.29s2.18-.36,3.18.59c3.47,3.47,5.88,3.35,9.29,0a2.52,2.52,0,0,0,.26-3.57,2.13,2.13,0,0,0-.26-.26,14,14,0,0,0-6.94-4.65,7.15,7.15,0,0,1-3.76-2.11,4.3,4.3,0,0,1,2.35-6.77,20.91,20.91,0,0,1,9.18,0c1,0,1.35.88,1.06,1.82s-.59,1.83-2.06,1.59a50.38,50.38,0,0,0-5.89-.41c-.52,0-1.41,0-1.52.77s.58,1.11,1.17,1.35,2.41.88,3.59,1.41a12.37,12.37,0,0,1,7.35,7.24,4.46,4.46,0,0,1-1.23,5.41C604.63,248.17,603.28,250.88,600.58,250.58Z"/><path class="cls-1" d="M958.58,224.34l4.59.53c1.18,0,1.65.65,1.47,1.77s-.59,1.94-1.94,1.76a22.18,22.18,0,0,0-6.24-.47c-.53,0-1.23,0-1.41.65s.41,1.12.94,1.41,1.41.53,2.06.82a41.9,41.9,0,0,1,4,1.77c4.53,2.76,6.77,7.76,4.77,10.65a9.83,9.83,0,0,1-13.35,3.86,10.84,10.84,0,0,1-1.07-.69,8.6,8.6,0,0,1-2.47-2.52,1.66,1.66,0,0,1,.21-2.33,1.55,1.55,0,0,1,.32-.2,1.46,1.46,0,0,1,2.08-.06,1.31,1.31,0,0,1,.27.35,8.41,8.41,0,0,0,2.71,2.29,5.89,5.89,0,0,0,7.88-2.67l.12-.27a2.77,2.77,0,0,0-.65-2.59,12.74,12.74,0,0,0-5.88-4.29,30,30,0,0,1-3.29-1.3,3.92,3.92,0,0,1-2.47-4.17,4.27,4.27,0,0,1,3.23-3.94A16.77,16.77,0,0,1,958.58,224.34Z"/><path class="cls-1" d="M1183.21,223.11h4.12c1.35,0,2,.47,1.7,1.94s-.94,1.88-2.29,1.65a20.81,20.81,0,0,0-5.89-.48c-.58,0-1.17,0-1.29.77a1.06,1.06,0,0,0,.82,1.24c.47.17,2.18.88,3.3,1.35a13,13,0,0,1,7.82,7.12,4.82,4.82,0,0,1-1.29,5.88,9.66,9.66,0,0,1-13.5,2,10.67,10.67,0,0,1-1.45-1.32c-.94-1.06-2-2.12-.58-3.47s2.23-.3,3.23.64c3.47,3.42,5.3,3.36,8.83,0a2.75,2.75,0,0,0,.8-3.82,2.61,2.61,0,0,0-.51-.59,13.63,13.63,0,0,0-5.88-4.06c-1-.41-2.06-.76-3.06-1.23a4.35,4.35,0,0,1,1.59-8.12,27.06,27.06,0,0,1,3.82,0Z"/><path class="cls-1" d="M1034.83,233.64l-1.53.76c-1,.47-2,.65-2.71-.41a1.82,1.82,0,0,1,.39-2.55l.14-.1c2.94-1.53,2.71-3.76,2.36-6.59a8.45,8.45,0,0,1,8-8.91,7.61,7.61,0,0,1,1.35,0c.82,0,1.47.35,1.47,1.29s.29,2-.88,2.36a13.92,13.92,0,0,1-2.12.41,4.88,4.88,0,0,0-4.17,5.51,5,5,0,0,0,.4,1.37c.48,1.47,1.48.71,2.24.71s2.65-.59,3,1.29-.88,2.42-2.35,2.65-1.89,1.12-1.83,2.71a40.06,40.06,0,0,1-1.53,12.12c-.35,1.35-.7,2.7-2.7,2.23s-1.41-1.76-1.18-3.06A48.15,48.15,0,0,0,1034.83,233.64Z"/><path class="cls-1" d="M799.26,234.93c0-4.06-1.36-7.94-1.47-11.76v-3.3c0-1.12.53-1.71,1.47-1.71s1.17.83,1.29,1.71c.83,5,1.77,10.06,2.47,15.12a13.37,13.37,0,0,1-2.64,11.06,8.6,8.6,0,0,1-10.24,1.83,7.2,7.2,0,0,1-3.3-8.3c.3-1.47.94-2.71,2.71-2.41s2.12,1.76,1.53,3.12a3.16,3.16,0,0,0,1.53,4.23,4.17,4.17,0,0,0,5.41-2A15.2,15.2,0,0,0,799.26,234.93Z"/><path class="cls-1" d="M1105.14,237.34c0-2.53.41-5.06.41-7.64,0-4.06.88-3.53-3.65-4.18-1.18,0-1.94-.41-2-1.65s.94-1.88,2.18-1.82a3.75,3.75,0,0,1,.82,0c1.94.41,2.41-.36,1.76-2.18a32.67,32.67,0,0,1-.76-3.18,1.59,1.59,0,0,1,.79-2.1,1.48,1.48,0,0,1,.5-.13,1.75,1.75,0,0,1,2.47,1.35,38.6,38.6,0,0,1,1.18,5.3c0,2.11,1.12,2.35,2.88,1.64s2.18-1.11,2.71.59-.29,2.94-1.88,2.94c-3.41,0-3.18,2.06-3.18,4.42v12.59a1.88,1.88,0,0,1-1.75,2,1.61,1.61,0,0,1-.31,0c-1.35,0-1.7-.83-1.76-1.94v-5.89Z"/><path class="cls-7" d="M1132.73,222.4a21.1,21.1,0,0,1,.35-4.65A1.83,1.83,0,0,1,1135,216h.13a2,2,0,0,1,2.18,1.65,6.09,6.09,0,0,1,0,1.35,120.16,120.16,0,0,0,1.88,22,15.17,15.17,0,0,1,0,3.3c0,1-.41,2.11-1.65,2.11a2.26,2.26,0,0,1-2.53-2.05C1134.61,237.05,1132.73,229.81,1132.73,222.4Z"/><path class="cls-1" d="M552.1,226.75v-4.94a2.17,2.17,0,0,1,4.29,0,144.14,144.14,0,0,0,2.18,23.54v1.94c0,.64,0,2.59-1.65,2.64a2.35,2.35,0,0,1-2.58-2.1c0-.06,0-.13,0-.19A197.8,197.8,0,0,1,552.1,226.75Z"/><path class="cls-1" d="M843,229.23a23.11,23.11,0,0,1,5.88-4c1.18-.47,2.3-.52,2.77.71s.47,2.3-1.06,2.94a16.07,16.07,0,0,0-3.41,2.24,8.9,8.9,0,0,0-3.83,6.88c0,2.77-.94,5.53-.76,8.41,0,1.18-.41,2-1.71,2s-2.17-.48-2.17-1.89a76.61,76.61,0,0,1,0-9.82,23.87,23.87,0,0,0,0-7.06c0-1.41-1.06-3.18,1.35-3.71s2.18,1.35,2.53,2.71C842.56,228.75,842.74,228.87,843,229.23Z"/><path class="cls-7" d="M890,230.64a40.37,40.37,0,0,1-1.12,6.23,13.16,13.16,0,0,0,0,6.42,2.18,2.18,0,0,1-1.13,2.86,2.44,2.44,0,0,1-.46.14,2.48,2.48,0,0,1-3.06-1.59,8,8,0,0,1-.35-4.83,42.37,42.37,0,0,0,1.06-10.53c0-1.94,0-4,2.35-4.17s2.59,2.06,2.89,3.88A14.33,14.33,0,0,1,890,230.64Z"/><path class="cls-1" d="M1126.08,229.23a43.55,43.55,0,0,1-1.12,5.88,13.36,13.36,0,0,0,0,6.47,2.36,2.36,0,0,1-1.22,3.1,3.09,3.09,0,0,1-.43.14c-1.64.41-2.53-.71-3.11-2a12.55,12.55,0,0,1,0-6.77,35.41,35.41,0,0,0,.76-8.65c0-1.82,0-3.71,2.35-3.76s2.53,1.94,2.71,3.64A15.88,15.88,0,0,1,1126.08,229.23Z"/><path class="cls-8" d="M890,219.46c0,1.71,0,3.41-2.12,3.47a2.71,2.71,0,0,1-2.6-2.81s0-.09,0-.13c0-1.83,1.53-2.65,3.12-2.83S889.86,218.58,890,219.46Z"/><path class="cls-9" d="M1126.08,217.87c0,1.65,0,3.53-2.06,3.59s-2.41-1.41-2.47-2.82,1.47-2.59,3-2.89S1125.9,217,1126.08,217.87Z"/><path class="cls-10" d="M547.57,111.44a17.91,17.91,0,0,1-.47-5.88,3,3,0,0,1,1,1.88C547.15,108.73,548,110.2,547.57,111.44Z"/><path class="cls-11" d="M994.76,111.91V95.79c0-.88-.41-2.12,1.24-2.18a91.58,91.58,0,0,1,19.65.47,15.31,15.31,0,0,1,14.3,15,16.94,16.94,0,0,1-11.77,19.35,76.39,76.39,0,0,1-22,1.53c-1.53,0-1-1.17-1-2V111.85Z"/><path class="cls-11" d="M1130.14,97.85l17.65,52.42c.41,1.24,0,1.77-1.24,1.77H1114.2c-1.36,0-2,0-1.42-1.83,5.89-17.12,11.06-34.3,16.65-51.42A4.3,4.3,0,0,1,1130.14,97.85Z"/><path class="cls-12" d="M430.37,96.2c-4.47-1.88-9.24-2.65-13.77-4.12a7.63,7.63,0,0,1-4.35-3c3.82-1.35,7.76-2.59,11.76-4,2.48-.88,3.83-3.53,6.54-4.23,1-.3,2-.89,3-1.3A50.14,50.14,0,0,0,430.37,96.2Z"/><path class="cls-13" d="M424.19,115a12.55,12.55,0,0,1,4.88-11c0,1.7,1,4.12-2.11,4.53-.53,0-.42.7-.47,1.17A9.85,9.85,0,0,1,424.19,115Z"/><path class="cls-11" d="M872.68,237.05a5.52,5.52,0,0,1-3.7,5.35,5.86,5.86,0,0,1-6.65,0,8.41,8.41,0,0,1-1.7-11.77,7.79,7.79,0,0,1,.64-.76,4.71,4.71,0,0,1,6.65,0,17.29,17.29,0,0,0,3.82,3.77C873,234.29,872.27,236,872.68,237.05Z"/><path class="cls-11" d="M445.78,241.29c0,1.58-1.94,2.88-4,3.94a5.87,5.87,0,0,1-6.41,0,8.64,8.64,0,0,1-1.25-12.17c.12-.14.24-.29.37-.42a4.35,4.35,0,0,1,4.53-1.06A12.65,12.65,0,0,1,445.78,241.29Z"/><path class="cls-11" d="M405.13,239.87c.35,3-1.71,4.36-3.94,5.53a5.88,5.88,0,0,1-6.89-.41,8.65,8.65,0,0,1-.66-12.21l.13-.14a4.71,4.71,0,0,1,5.89-.47c1.7,1.35,2.64,3.41,4.7,4.53C405.31,237.23,405,238.52,405.13,239.87Z"/><path class="cls-14" d="M344.53,236.52c-4.29,0-4.88-.82-4.06-5v-.82c.59-1.65,0-4.18,2.06-4.77a11.06,11.06,0,0,1,8.65,4.83,3.53,3.53,0,0,1-1.71,4.23A8.71,8.71,0,0,1,344.53,236.52Z"/><path class="cls-14" d="M363.83,241.29a7.88,7.88,0,0,1,5.47-8.36c3.18-.94,5.88,0,8.18,3.71a50.92,50.92,0,0,1-6.83,2.23Z"/><path class="cls-14" d="M459.55,240.87a8.05,8.05,0,0,1,4.71-8.29,6.65,6.65,0,0,1,7.88,1.94c.88,1,1.41,1.77-.41,2.24A66.39,66.39,0,0,0,459.55,240.87Z"/><path class="cls-11" d="M1057.66,245.23a7.9,7.9,0,0,1-6.89-7.36,7.35,7.35,0,0,1,6.89-6.64,8.06,8.06,0,0,1,7.88,7.29A7.71,7.71,0,0,1,1057.66,245.23Z"/><path class="cls-14" d="M926.34,238.05a8.23,8.23,0,0,1,4.94-8.41,6.88,6.88,0,0,1,7.71,2c1.06,1.12,1.29,1.76-.59,2.29A64,64,0,0,0,926.34,238.05Z"/><path class="cls-11" d="M581.1,241.46a7.71,7.71,0,0,1-7.53,6.83,8.12,8.12,0,0,1-6.82-7.47,7.18,7.18,0,1,1,14.35.64Z"/><path class="cls-11" d="M728.19,240.7a7.72,7.72,0,0,1-7.77,6.65,8.13,8.13,0,0,1-6.71-7.59,7.88,7.88,0,0,1,6.71-6.59,7.47,7.47,0,0,1,7.76,7.17C728.19,240.46,728.19,240.58,728.19,240.7Z"/><path class="cls-14" d="M1163.56,231.93c-4.18,1.53-8.59,2.36-12.65,4.3-1.3.58-1.24-.42-1.18-1.3a8.71,8.71,0,0,1,5.88-7C1158.79,227.17,1161.32,228.46,1163.56,231.93Z"/><path class="cls-11" d="M826.91,239.87a7.54,7.54,0,0,1-7.41,6.89,7.77,7.77,0,0,1-6.89-7.47,7.18,7.18,0,0,1,14.3.58Z"/><path class="cls-11" d="M539.92,241.64a7.41,7.41,0,0,1-7.42,6.82,7.77,7.77,0,0,1-6.94-7.47,7.87,7.87,0,0,1,6.47-6.7A8.05,8.05,0,0,1,539.92,241.64Z"/><rect class="cls-15" x="8" y="13.95" width="113.67" height="241.22"/><rect class="cls-16" x="121.73" y="13.95" width="163.79" height="241.22"/><path class="cls-17" d="M75.13,61.49v3.77a4.37,4.37,0,0,0,0-3.77"/><path class="cls-17" d="M82.84,41.07s0-.53.47-.53a1.24,1.24,0,0,1,1.23.77c0,.47-.29,1.65,1.3,1.82a3.68,3.68,0,0,1,0,.47h0a1.47,1.47,0,0,1,0,.83h.29c2.18,0,3.35,0,4-.71a3.23,3.23,0,0,0,.53-.7A3.6,3.6,0,0,0,91,40.19h0V39.9a6.25,6.25,0,0,0-3.23-2.3h0A5,5,0,0,1,91.25,40,2,2,0,0,0,92,38.54h0a3.07,3.07,0,0,1,0-1.35m0-.41H91.6c-.06,0-1,0-.7-.35s0-.36,0-.47a.41.41,0,0,0-.47,0c0,.58-.89,0-.65,0s0-.36,0-.47a.35.35,0,0,0-.47,0c-.3.58-.94,0-.71-.3a.33.33,0,0,0-.47-.47,6.44,6.44,0,0,1-.59.88,6.94,6.94,0,0,1,3.53,1.77l.36.41h0s0-.29-.42-.35a7,7,0,0,0-3.7-1.77c-.71,0-.47.83-.41,1.3a1.76,1.76,0,0,0-2.12,1.33v0a1.64,1.64,0,0,0,0,.88h0l-.3-.29a2.91,2.91,0,0,1,0-.59c-.94,0-1.82.53-1.7,1.35a1.35,1.35,0,0,0,.82,1.12M87,39.54c0-.29.29.89,1.29.59-.71.77-1.65,0-1.29-.59M87,39c.41,0,.76-.94,1.29-.59a3.17,3.17,0,0,1,.82.59,3.47,3.47,0,0,1,.83.64c0,.36-.3,1.12-.83.42s-.82-1.48-1.59-1.06-1,.7-1.17.29.41,0,.65-.29m-2.65,0c0,.35-.71.35-.77.76s.36-1.18.77-.76"/><path class="cls-17" d="M108.72,79.67c-.7-.77-2.41-.41-2.41-.41A2.47,2.47,0,0,0,105,76a2,2,0,0,0-.34-.12,2.28,2.28,0,0,0-1.88,0h0a1.26,1.26,0,0,0-.41.89,1.35,1.35,0,0,0,1.35,1.29,1.67,1.67,0,0,0,.77,0,1.22,1.22,0,0,0,.53-.76,1.73,1.73,0,0,1,.53.58c.7,2.3-1.94,3.12-1.94,3.12a10.88,10.88,0,0,1-9.71-1.35L95,79.14a1.87,1.87,0,0,1,.88,0h0a1.18,1.18,0,1,0,2.35,0,1,1,0,0,0,0-.53h0c-.7-1-3.06-.35-3.06-.35a3.91,3.91,0,0,0,0-3.18c-.41-.71-.35-.94-.35-.94v-.77H91.49v.83l-1.12,1A1.4,1.4,0,0,0,91.21,77a1.28,1.28,0,0,0,.28.07c1.05,0,1.05-.82,1.05-.82l-1-.83.53-.47A1.77,1.77,0,0,1,93.9,76a2.52,2.52,0,0,1-.3,2.88h-.41a10.38,10.38,0,0,1-1.7-1H91a4,4,0,0,0-1.29,0,25.81,25.81,0,0,0,2,1.77c-1.18.88-1.82,0-1.82,0a2.43,2.43,0,0,1-.36-1.94h0L88,78.38c.52.94,1.41,2.29,1.41,2.29-1.36.47-1.65-1.24-1.71-2.18l-.76.3a2,2,0,0,1,0,.35,4.83,4.83,0,0,0,1,2.12,1.7,1.7,0,0,0-1.59.35,1.57,1.57,0,0,0-.53,1.47.68.68,0,0,0,1.35,0V83a.65.65,0,0,0-.65-.64h0c.3-.71,1,0,1,0,1.06.88-.58,1.88-.58,1.88-1.18.7-2.24-.71-2.24-.71A8.06,8.06,0,0,0,86,79.14l-1.23.41A2.69,2.69,0,0,1,84,82.49c-.41,0-.47-1.29-.47-1.29A7.17,7.17,0,0,0,83.13,80H82A15.63,15.63,0,0,1,82.6,83l-.82.3c-1,0-.47-.41-.47-.41l.35-.71H80.37c-1.42.71-1,1.47-1,1.47l1.58,1a4.23,4.23,0,0,1-2.41.3,1,1,0,0,0-.7-.83h0a.89.89,0,0,0-.89.3v.29h-.82c-.65,0-.94-1.71-1.18-3.12h-.7a9,9,0,0,0,.53,2.89,7.3,7.3,0,0,1-1.53-.83A3.32,3.32,0,0,0,70.54,83a1.6,1.6,0,0,0,.29,3.18,1.71,1.71,0,0,0,1.71-1.59l1.12.65A6.89,6.89,0,0,0,77,86.32a1.24,1.24,0,0,0,1.51.88,1.26,1.26,0,0,0,.73-.53,6.17,6.17,0,0,0,4.41-1.47c.35-.47.41,0,.41,0,1.18,1.59,3.47.59,3.47.59h.53a.89.89,0,0,0,1.18.29c.94-.41.41-1,.41-1v-.29c1.06,0,1.3-.41,1.3-.41l-.59-.89V83l.53-.7.76-.36-1-.29L90,81.2A12.87,12.87,0,0,0,93,80.67a15,15,0,0,0,6.47,2.53,2.13,2.13,0,0,1,0,.94h0a.59.59,0,0,0-.65.53v.06a.65.65,0,0,0,.65.59h0c1.23-.3,1.35-2.06,1.35-2.06a7.57,7.57,0,0,0,5.88-2.18c.36-.29.53,0,.59,0h0a.89.89,0,0,0,.77.35,1,1,0,0,0,.82-.41,1.19,1.19,0,0,0,0-.53h0a1,1,0,0,0,0-.59"/><path class="cls-17" d="M66.25,83.73a.9.9,0,0,0,.41-.53A1.71,1.71,0,0,0,66,81.85H63.36a1.49,1.49,0,0,0-.7,1.35.9.9,0,0,0,.41.53s-.88.41-.88,1,0,.41.7,1a5.44,5.44,0,0,1,.71,1.12s0,.64,1,.64,1-.64,1-.64a4.81,4.81,0,0,1,.76-1.12c.77-.59.65-1,.65-1l-.88-1"/><polygon class="cls-17" points="72.83 80.02 73.31 79.96 73.01 79.43 72.83 80.02"/><polygon class="cls-17" points="57.24 80.02 57.72 80.08 57.54 79.49 57.24 80.02"/><path class="cls-17" d="M55.42,78.79h0v.7h.35m0-.29h-.29"/><path class="cls-17" d="M62.13,79.32a.33.33,0,0,0-.36,0v.58a1.47,1.47,0,0,0,0,.59.33.33,0,0,0,.36,0m.35,0V79.9a1.14,1.14,0,0,0,0-.58.36.36,0,0,0-.35,0"/><path class="cls-17" d="M68,79.32H67.6a.8.8,0,0,0,0,.53,1.14,1.14,0,0,0,0,.58.53.53,0,0,0,.35,0,.32.32,0,0,0,.35,0v-.58a1.47,1.47,0,0,0,0-.59.49.49,0,0,0-.41,0"/><polygon class="cls-17" points="52.01 79.32 52.48 79.38 52.3 78.79 52.01 79.32"/><path class="cls-17" d="M43.12,75.9v.71h.42"/><path class="cls-17" d="M45,76.73a.89.89,0,0,0-.3.53.76.76,0,0,0,0,.59h0a.51.51,0,0,0,.42,0,1.19,1.19,0,0,0,0-.53,1.47,1.47,0,0,0,0-.59.51.51,0,0,0,0-.3.4.4,0,0,0-.42,0"/><path class="cls-17" d="M47.48,77.26h0v.64H48a.48.48,0,0,0,0-.29h-.3"/><path class="cls-17" d="M82.42,77.32h-.35V78h.3"/><polygon class="cls-17" points="86.31 77.08 86.72 76.96 86.31 76.49 86.31 77.08"/><path class="cls-17" d="M87.43,74.61H86.9a63.9,63.9,0,0,1-22.3,3.65,63.9,63.9,0,0,1-22.3-3.65h-.41a1.2,1.2,0,0,0-.65,0l-2.76,2.06h0a5.87,5.87,0,0,1,1.7.41,63.39,63.39,0,0,0,24.36,4.3,63.39,63.39,0,0,0,24.36-4.3,5.64,5.64,0,0,1,1.76-.41h0L87.9,74.61a1.2,1.2,0,0,0-.65,0m-25.36,4h.59l-.65.35h0Zm-18.18-2H43V77h0l-1-.35h0l.35-1h1.18m2.23,1.12a1.1,1.1,0,0,1-.47.53,1.28,1.28,0,0,1-.82,0,1.08,1.08,0,0,1-.53-.3.55.55,0,0,1,0-.47,1.24,1.24,0,0,1,0-.47,1,1,0,0,1,.29-.41h1a1.06,1.06,0,0,1,.71.47,1.1,1.1,0,0,1,0,.76m1.88.89a1,1,0,0,0,0,.35h-.59a1.24,1.24,0,0,1,0-.47h0v.41h0l-1-.29h0l.3-1h.64a1.24,1.24,0,0,1,0,.47m3.18,1.17-.82,1.24h0V78.61h1v1h.29a.38.38,0,0,0,.36,0h0Zm2.06.42H50.89l.71.82H52l.82-1.29h0v1.76h0Zm3.18.41H55a1.86,1.86,0,0,1-.3-.53h0v.59h-1V78.26H55a.42.42,0,0,1-.41.35v.77h0Zm2.12,0H56.24l.36-.3.7-1.35h0L57.77,79v.3h0Zm2.06-1.53L58.48,79.2h.76v.53h-1.7l1.17-1.47h.53v-.47h1.59ZM62,79.26a.92.92,0,0,1-.76,0H60.6a.8.8,0,0,1-.36-.41,1.48,1.48,0,0,1,0-.42V78a.77.77,0,0,1,.42-.35h.53A1.09,1.09,0,0,1,62,78a.91.91,0,0,1,0,.65.92.92,0,0,1-.35.65m2.82-1.41h0v1.53h0l-.47.29v.82h-.59v-.82H64l1,1.12V79.67m-.29-.29Zm2.88-.18a1.29,1.29,0,0,1-.77.29,1.16,1.16,0,0,1-.64,0,.58.58,0,0,1-.36-.29,1.85,1.85,0,0,1,0-.47.64.64,0,0,1,0-.47.58.58,0,0,1,.36-.36,1,1,0,0,1,.53,0,1.28,1.28,0,0,1,.82,0,1,1,0,0,1,0,.71.91.91,0,0,1,0,.65m1.59,0h0V78.2h1v1.06h.35a.73.73,0,0,0,0-.36h0v.59ZM72,79h-.88l.41-1.47h0l.71,1.3h0Zm3.3-1.82h-.59v.59H75v.65h-.29v1.29h-1V78.61h1.59V77.14Zm2.23-.41v.88a.48.48,0,0,1,0,.29h-.35a.49.49,0,0,1-.41,0h0v-.7h1v.7h0V77a.3.3,0,0,0-.36,0h.71M79,78.2h0V77.14h0l1.59-.35v.41H79.9v.59h0v.59h-.42v.41H81v.59Zm3.53-.88L82.07,77h0v.47h0l-.94.3h0V76.67H82.6a.41.41,0,0,1,0,.53l.41.29h.36Zm.89,0h0l.53-1.77h-.65a.51.51,0,0,0,0,.3h0v-.48l1.53-.47h0l-.53,1.77H85v-.3h0v.48Zm2.88-.95H85.13V74.43h0l1.12,1.12h0Z"/><path class="cls-17" d="M55.13,48.84l-1,.59h2l-1-.59"/><path class="cls-17" d="M68.54,49.37,67.72,49h0l-1.12-.36H62.36L61.24,49h0l-.88.35h8.36"/><path class="cls-17" d="M74,48.84h0l-.88.59h2l-.82-.59"/><path class="cls-17" d="M54,65.26V61a5,5,0,0,0,0,4.24"/><path class="cls-17" d="M64.3,50.25H53.36v.3l.47.53H64Z"/><path class="cls-17" d="M63.89,51.37H54.3l.47.88h8.59Z"/><path class="cls-17" d="M63.36,53.66v-.88H55a4,4,0,0,1,.29.88Z"/><path class="cls-17" d="M63,54.19H55.48a4.41,4.41,0,0,1,0,.89H62.6Z"/><path class="cls-17" d="M55.42,57.84h4L58.19,57H55.6v.82"/><path class="cls-17" d="M55.66,55.61h0v.76h1.82l-1.24-.82Z"/><path class="cls-17" d="M64.36,58.14l4.89,6.59V67.9h.88V59.25h.59V67.9h.88V59.25h.59V67.9l.88-.29V59.25h.59V67a2.26,2.26,0,0,0,.82-.65h0V60.49a9.1,9.1,0,0,1-.64-1.29h0a3.21,3.21,0,0,1-.36-.83H68.42l-1.12.77-2.17-.77-.83-.29,8.24-2.53H66.19V55h7.23v-.88h-7.7v-.53h8.06a5.45,5.45,0,0,1,.29-.89H65.3v-.53h9.06a4.43,4.43,0,0,1,.48-.88h-10v-.53h10.3l.59-.76H64.54v8.12Zm4.36,1.11h.53v5.3l-.53-1.65Z"/><path class="cls-17" d="M66.36,69a3.3,3.3,0,0,1,.89-.47V63.25l-.89-.64Z"/><path class="cls-17" d="M64.83,70.67a2.07,2.07,0,0,0,.36-.53h0a2.51,2.51,0,0,1,.47-.65V62l-.89-.65Z"/><path class="cls-17" d="M63.36,69.26a3.28,3.28,0,0,1,.71.82h0V61.25l-.71.77Z"/><path class="cls-17" d="M61.89,68.43a3.08,3.08,0,0,1,.88.41V62.31l-.88.65Z"/><path class="cls-17" d="M67.83,68.31a2.66,2.66,0,0,1,.89,0V64.49l-.89-.65Z"/><path class="cls-17" d="M60.48,67.9h.88V63l-.88.65Z"/><path class="cls-17" d="M55.48,66.9V59.25h.59v8l.88.35V59.25h.53V67.9h.88V59.25H59V67.9h.88V64.31l-.53.42,5-6.71h0l-1.82-2.53H56.13L64.36,58l-3,1.06-1.12-.77h-5a8.58,8.58,0,0,1-.35.83,3.42,3.42,0,0,1,0,.64v6.36a4.26,4.26,0,0,0,.88.76m4.42-7.65h.58V62l-.58,1.65Z"/><path class="cls-17" d="M69.25,57.84h4.06V57H70.66Z"/><path class="cls-17" d="M73.19,55.61H72.6l-1.24.82h1.83a1.94,1.94,0,0,1,0-.59h0"/><path class="cls-17" d="M50.3,39.66a7.86,7.86,0,0,0,4.36.59,2.65,2.65,0,0,0,1.23-.47h0a2.81,2.81,0,0,0,1-2.41h0V38a3.41,3.41,0,0,1-.29,1.29h0a.58.58,0,0,0,0,.41,1.71,1.71,0,0,0,1.64,0h0a1.4,1.4,0,0,1-1.11.47h.35a3.09,3.09,0,0,0,2.71,1.06h-.65a4,4,0,0,1-1.71-.35A5,5,0,0,0,61,42.37H59.42c.77,2.82,2.35,2.53,2.35,2.71a.88.88,0,0,0-.55,1.11,1,1,0,0,0,.08.18,10.37,10.37,0,0,1,3.36-.59,9.31,9.31,0,0,1,3.41.65.65.65,0,0,0,0-.77c0-.7-2.53-1.23-4.71-.64h0a5.42,5.42,0,0,1,4,0h0c.89.35,1.71-.71,1.42-1.24a1.12,1.12,0,0,0,1.23-1v-.07a.53.53,0,0,1-.35,0h-.47A3.13,3.13,0,0,0,71,40.25a1,1,0,0,1-.88.41h-.35a.72.72,0,0,0,.41,0,2.89,2.89,0,0,0,1.06-1.35,6.73,6.73,0,0,1-1.53-2.65,1.37,1.37,0,0,0-1.06-.88h-.47c.59-.47,1.29,0,1.65,0,0-1.06.47-1.35.53-1.35h0a4.22,4.22,0,0,0,1.94,4.88,6.28,6.28,0,0,0,6.35-.59h0a3.14,3.14,0,0,1-1.06,0,1.19,1.19,0,0,1-.7,0h0a2.73,2.73,0,0,0,.7,0A3.35,3.35,0,0,0,80,34.64v0h0a5.8,5.8,0,0,1,0,.59,1.41,1.41,0,0,1-.47.53h0a3.12,3.12,0,0,0-.76-4.18,5.9,5.9,0,0,0-5.89,0,5.34,5.34,0,0,0-1.94-1.17A5.14,5.14,0,0,1,69,32.84a2.87,2.87,0,0,1-.82.41h0A3.77,3.77,0,0,0,70.31,30h0a4.44,4.44,0,0,0-1.06-2.82,5.89,5.89,0,0,0-5.89-.41,2.94,2.94,0,0,0-.82,1.59,1.89,1.89,0,0,1,1.29-1.18c.77,0,2.12,0,2.36.71a2.42,2.42,0,0,0-3.83,1.76h0v-.94a6.51,6.51,0,0,1,.53-1.88A4.76,4.76,0,0,0,57,31.54a2.8,2.8,0,0,0,.82,1.65h0a.77.77,0,0,1-.64-.47,4.23,4.23,0,0,1-.65-1.29A7.7,7.7,0,0,0,52.77,31,4.91,4.91,0,0,0,50,32.48a5.15,5.15,0,0,0-.65,1,3.91,3.91,0,0,0-.47,2.35A4.31,4.31,0,0,0,51,39.25m27.42-8.12a2.62,2.62,0,0,1,1.47,1.47,2.12,2.12,0,0,1,0,1.71h0a3.35,3.35,0,0,0-.3-1.59,1.54,1.54,0,0,0-.82-.88,9.51,9.51,0,0,1,.53.94,1.38,1.38,0,0,1,0,.7,3,3,0,0,1-.77,2h0a2.84,2.84,0,0,0,0-2.48h0a1.92,1.92,0,0,0-1.59-1.11A2.55,2.55,0,0,1,77.78,33a2.22,2.22,0,0,1,0,2.58h0a.94.94,0,0,1,0-.41,5.57,5.57,0,0,0,0-1c-.41-1.7-1.89-2.35-3-1.29a3.29,3.29,0,0,1,3.76-1.36M66.83,43.78V43c0-.24.77-.83,1.06-1.12s0,.88-.88,1.94m0-1.59c-.35-.59.53-1.29.77-1.88S67.48,42,67,42.19m2.88-13.53c0,.88-.47,1.12-.53,1.12h0a2,2,0,0,0-.29-2.06,3.14,3.14,0,0,0-1-.65A2.29,2.29,0,0,1,70,28.78m-2.47,8.59c.82.29-.41,1.82-.47,2.12s.82-.71,1.06-.53-.82,1.94-1.18,2c-1.76-2.18.53-2.89.59-3.59M66.3,41.13a5.86,5.86,0,0,1,0,3.42v-.83A12.16,12.16,0,0,0,66,40.37a22.47,22.47,0,0,0-1.7-4.12,12.23,12.23,0,0,1,2.35,4.88m-7.47-5.35A10.51,10.51,0,0,0,65,39.37c.94,0,1.41,3.06.65,4.47-.83,0-.94-.59-1.12-1.18s.88.65.88,0-2.23-.7-1.7-1.53,1.29,1.36,1.58.77-3.58-1.53-3.53-2.53,3,1.35,3.48,1.29-4.48-2.29-5.89-4.59v-.35h0M51.6,38.84c1,0,1.94-.77,1.64-1.65s-.29-.47-.7-.53a1.42,1.42,0,0,0-1.24.77,1.36,1.36,0,0,1,1.4-1.31h.13a1.61,1.61,0,0,1,1.24.94c.29,1.36-1,1.89-2.47,1.77m0-6.24a3.12,3.12,0,0,1,3.17.65,3.24,3.24,0,0,1,.49,4.55l-.19.22c.47-1.12.64-2.83-1.18-3.24A3.93,3.93,0,0,0,50.48,36a3.12,3.12,0,0,1,3.76-1.82c-.35-1.06-1.82-1.47-3.47-.59a5.43,5.43,0,0,0-.94.65A3.09,3.09,0,0,1,51.6,32.6"/><path class="cls-17" d="M59.42,82.85a3.33,3.33,0,0,0-2.71.58,6.65,6.65,0,0,1-1.53.83s.3-1.35.53-2.88H55c0,1.41-.53,3.06-1.12,3.11H53V84.2a.87.87,0,0,0-.88-.29h0a1,1,0,0,0-.71.82A4.23,4.23,0,0,1,49,84.44s1.41-.48,1.59-1,.41-.76-1-1.47c0,0-1-.58-1.3,0s0,.3.35.71.53.47-.47.41c0,0-.64,0-.82-.29A11.8,11.8,0,0,1,48,79.85H46.83A7.06,7.06,0,0,0,46.42,81s0,1.06-.47,1.3a2.7,2.7,0,0,1-.77-2.94L44,79a7.94,7.94,0,0,0,1.41,4.42s-1.12,1.41-2.29.7c0,0-1.65-1-.59-1.88,0,0,.7-.59,1,0a.65.65,0,0,0-.65.65h0a.66.66,0,0,0,.64.65h.07a.63.63,0,0,0,.64-.58,1.58,1.58,0,0,0-.53-1.48,1.66,1.66,0,0,0-1.53-.35,5,5,0,0,0,1-2.12.69.69,0,0,1,0-.35l-.83-.29c0,.94-.35,2.64-1.7,2.17L42,78.2l-1.65-.65h0a2.43,2.43,0,0,1-.53,2.12,1.49,1.49,0,0,1-1.82,0c.69-.56,1.36-1.14,2-1.77a4.29,4.29,0,0,0-1.24,0h-.53a10.47,10.47,0,0,1-1.71,1h-.41A2.46,2.46,0,0,1,35.83,76a1.7,1.7,0,0,1,1.82-1,.61.61,0,0,1,.53.41c.18.42-1.17,0-1,.83s0,.82,1.06.82a1.41,1.41,0,0,0,1.19-1.6,1.28,1.28,0,0,0-.07-.28,1,1,0,0,0-1.12-1c-1.12,0,.53-.59,0-.83s-.35-.29-1.18,0,0,.36-1.11,0a1,1,0,0,0-1,0v.77c0,.76,0,0-.36.94a3.65,3.65,0,0,0-.29,1.18,2.9,2.9,0,0,0-1-.41c-.47-.48-.47-2.77-1-3.83s0-1.41,0-2.65a6.75,6.75,0,0,0,5.29-4.47,8.79,8.79,0,0,0-.29-4.29h0a5.43,5.43,0,0,1,.41.88,9.16,9.16,0,0,0,3.71-.41h.76a10.14,10.14,0,0,0,4.3-4.3,3.3,3.3,0,0,1-1.77-.94,16.81,16.81,0,0,0,2.53.47c1.3,0,2.24-.7,3.71-.53,0,0,0,.65,1.18,1.06A5.64,5.64,0,0,0,52.42,59v.29s-1.12.83-.82,1.48v.52h0s-.36,0-.65.59-.71,1.36,0,1.47h0a5.56,5.56,0,0,0,.82,4.24h0a6.72,6.72,0,0,0,5.89,2.65h0c.47,0,4.23,0,5.88,2.47,0,0,.41.53.71.53a.88.88,0,0,0,.7-.53c1.35-2.41,5.18-2.47,5.59-2.47h0a6.76,6.76,0,0,0,5.88-2.65h0a4.36,4.36,0,0,0,.89-2.24c.88-.47.82-2.29.82-2.58A3.24,3.24,0,0,0,80,64.2c0,.88,0,2.29.83,2.47s.53-.41.47-.71c.82,2.3,0,3.71.76,3.83s.83-1.36.94-1.36a3.2,3.2,0,0,1,.36,1.12v1.53c0,.12.59-2.94,1.41-2.59,0,1.35,0,2.12.59,2.35s0,1.24-.36,1.24c-1.58.35-3-.82-4.47-.47h0a5.87,5.87,0,0,0-4.35-.41c-.77-.65-1,0-1.24,0-1.35-.71-2.06.53-2.41.59s-.88-.65-1.53.82c-.29.59-1.76.88-1.88.94a.72.72,0,0,1-.77-.35v-.41h0a.88.88,0,0,0-.64,0,.76.76,0,0,0-.77.76v.06a.64.64,0,0,0,0,.47h.36a.53.53,0,0,1,.58.47v.06h0c0,.65-1,1.29-1,1.29H65.48a1.74,1.74,0,0,0-.71-.41.82.82,0,0,0-.64.47.84.84,0,0,0-.65-.47,1.81,1.81,0,0,0-.71.41s-.76.71-1.35,0-1.06-.64-1-1.29h0a.53.53,0,0,1,.53-.53h.41a.64.64,0,0,0,0-.47.76.76,0,0,0-.7-.82H60.6a.76.76,0,0,0-.59,0h0v.41a.72.72,0,0,1-.77.35s-1.58-.35-1.88-.94c-.65-1.47-1.18-.77-1.53-.82s-1.06-1.3-2.41-.59c0,0-.47-.83-1.24,0a5.87,5.87,0,0,0-3.47,0s-.76-.36-.94-.41a11,11,0,0,1-1.06-.59,13.1,13.1,0,0,0-2.17,0,2.43,2.43,0,0,1-.83-.3,7.33,7.33,0,0,1-2.35-1.82L41,67.61a2.92,2.92,0,0,1-.59-1.06,8,8,0,0,1,.29-3.12,7.37,7.37,0,0,0,0-.94,6.79,6.79,0,0,1-3.23,0,7.46,7.46,0,0,1,0,3.12,1.83,1.83,0,0,1,.82,1.23v1.47a10.59,10.59,0,0,0,2.12,1.59s3.12,2.24,3.53,2.36a3,3,0,0,0,1,0h0a3.3,3.3,0,0,0,.64.47l-2.82,1.59s-1.29.64-.65.64h1l-1,.41c1.36.48,2.77.89,4.18,1.24a10.93,10.93,0,0,1,3.24-2.18s1.59,0,2.11-1.06.89.65,2.3,0a1.19,1.19,0,0,1,.76.42c.42.41-.58,0-.41.76s-1.17,0-1.59.59a12.23,12.23,0,0,0-4.88,2h1.29a4,4,0,0,1,2.65-.82,2.33,2.33,0,0,1,2,1.64h2.59s1.41-.64.88-1.35,0-.35-.76,0-.35,0-.47,0a1.41,1.41,0,0,0,0-.41h0a2.26,2.26,0,0,0,.82,0,.77.77,0,0,0,.77-.77.83.83,0,0,0-.76-.88h0a.29.29,0,0,1-.29.3h-.06c-.47,0-.35-1.06.35-1.12a1.83,1.83,0,0,1,1.12.64,5.74,5.74,0,0,0,2.18,2,.86.86,0,0,0,.47.77c.47.18,0,.53.7.47l.3.59h3.65v-.59c.7,0,.58-.47.7-.47s.41-.77.47-.77a5.74,5.74,0,0,0,2.18-2,1.83,1.83,0,0,1,1.12-.64c.7,0,.82,1,.35,1.12s0,0,0-.3h0a.83.83,0,0,0-.77.88h0a.77.77,0,0,0,.77.77,2.26,2.26,0,0,0,.82,0h0a1.41,1.41,0,0,0,0,.41c0,.47-.41,0-.41,0h-.82A6.49,6.49,0,0,0,70.54,78h2.59a2.34,2.34,0,0,1,2-1.64,4,4,0,0,1,2.65.82h1.29a12.23,12.23,0,0,0-4.88-2c-.41-.59-1.59-.53-1.59-.59s-.53-.71-.41-.76.65-.47.76-.42a2.12,2.12,0,0,0,2.3,0c.17,0,2.12,1.06,2.12,1.06a10.89,10.89,0,0,1,3.23,2.18l3.83-1.12h0V75.2h0c-.36-.53-.83-1.06-1-1.24h0s1-1.35,1.53-.41,0,.41-.64.41a8.89,8.89,0,0,1,.82,1.77h.59c-.41-.71-.94-1.12-.77-1.3s.65,0,.94,0a5.72,5.72,0,0,0,0-1.17,1.91,1.91,0,0,0,1,0c1,0,1.35-1.42,1.11-1.89s.71-.53.77-.41,1.88,1.36,1.71,0a1.35,1.35,0,0,0,1.35,1.47c.88-.06,0-1.17.41-1.17s.47,1.47,1.41,1.17a.64.64,0,0,0,.53-.7c0-1.12-3.41-7.12-3.7-9.77h0s-.36-.65,0-1.06h0a1.4,1.4,0,0,1-1.12-1.47c0-1,.41-1.53.53-1.53h0s-.42,1.71,0,2.24h.59a.94.94,0,0,1,.47-.53h0a1.61,1.61,0,0,0,0,1.64,1,1,0,0,0,.64,0c.94-.29,1.42-2,1.65-2.58s-1.06,3.64,0,4.41.82-.65,1.06-1.18c.41,1.06-1.41,3.24,0,3.77s1.06-1.77,1.06-1.53c0,2.94-1.35,4.35-.3,4.82s1.12-2,1.12-1.7c0,3.11-1.65,4-.94,4.53s1.35-1.59,1.35-1.12c0,2.76-1.53,3.53-.88,4.41S97.9,73.26,98,73.79s-1.59,3.88-.65,4.11,1.12-.94,1.18-1.17a55.59,55.59,0,0,0,2.41-18.48,46.33,46.33,0,0,0-1.65-11.17c-.59-2.06-1.82-6.3-4.71-6.89a2.06,2.06,0,0,0-2.33,1.75,2.11,2.11,0,0,0,0,.25c0,.94.71,1.41.41,2.3a8.5,8.5,0,0,0-.88,1.94c0,.65.41.94,0,1.65s-1.35.58-2.59.29a4.12,4.12,0,0,1-2.41,0h0c1.29,0,2.47-.47,2.71-1a2.43,2.43,0,0,0-.53-2.53,7,7,0,0,1-3.65.65c-2.12,0-2.65,0-2.94,1.47a1,1,0,0,1,0-.59c0-.65.76-1.06,1.64-1.18a1.28,1.28,0,0,0,0-.82,3.08,3.08,0,0,0-1,0A3.15,3.15,0,0,0,80.19,46a1.57,1.57,0,0,0,0,.53.94.94,0,0,0,0,.41v.35c0,.35,1.12,1,2.76,1.06h0a1.16,1.16,0,0,1-.82,0,3.52,3.52,0,0,1-2.23-.76h0a3.29,3.29,0,0,1-2,.82,2.37,2.37,0,0,1-1.88-.82c-1.06-1.3,0-3.53,0-4.42,0-2.23-3.29-1.23-4.47-.64a12.1,12.1,0,0,0-3.47,2.94,10,10,0,0,0-1.35,2,9.22,9.22,0,0,0,2.58.7h.36a3.5,3.5,0,0,0,2.11-.58,1,1,0,0,1,.71,0,1.14,1.14,0,0,1,.82.35s2.18,1.65,2.83,2.06a.69.69,0,0,1,.06,1.17,13.58,13.58,0,0,0-1.83,2.89v.7c0,.3-.41,2.12.77,2.53,0,0,1.35.3,1.23-1.76,0,0,0,1.35,1.24,1.29s.82-.47.76-1.35h0a10.34,10.34,0,0,1,0-2.94h0a1.57,1.57,0,0,1,0,.53,10.69,10.69,0,0,0,3.83,8.7,7.69,7.69,0,0,1-3-2.88A2.59,2.59,0,0,0,78,62a2.89,2.89,0,0,0,1.06,1.35h-.65a2.49,2.49,0,0,1-.29-.59,14.38,14.38,0,0,1-1.41-1.29h0c0-.65,0-2.59-2.12-2.59H74A6.27,6.27,0,0,1,73.66,56a11.08,11.08,0,0,1,2.41-4.77.3.3,0,0,0,0-.29h0c-.71-.47-2.71-2-2.88-2.18h0a.64.64,0,0,0-.47,0,.94.94,0,0,0-.41,0,4,4,0,0,1-2.42.77h-.41a6.68,6.68,0,0,1-2.82-.83,9.22,9.22,0,0,0-7.59,0,7.13,7.13,0,0,1-2.88.83h1.29a3.83,3.83,0,0,1-2.35-.77h0a1,1,0,0,0-.42,0,1,1,0,0,0-.53,0h0S52,50.43,51.3,50.9h0a.48.48,0,0,0,.32-.59l0-.06A10.32,10.32,0,0,1,54.07,55a6.25,6.25,0,0,1,0,1.06,8.39,8.39,0,0,0-.47-1.3,3.22,3.22,0,0,0,0-.76h0a3.08,3.08,0,0,0-1.18-.94,6.7,6.7,0,0,1-1.06-.47,4,4,0,0,1-1.47-1.36A4.29,4.29,0,0,0,49.24,49a2.23,2.23,0,0,1,1.06,1.82A7.64,7.64,0,0,0,52,47c.76-.94,2.76-.59,3.53-.47a1.72,1.72,0,0,1,.64,0,1.73,1.73,0,0,0,.59.58,3.14,3.14,0,0,0,1.06,0,3.88,3.88,0,0,1,.3.48h.29a10.75,10.75,0,0,0,2.71-.77h0a2.71,2.71,0,0,0-1.71-.71c-.71,0-1.12-.76-1.82-.88a3.14,3.14,0,0,0-1.06,0,18.93,18.93,0,0,1-4.18-.47c-1.41,0-1.41.82-1.94,1.59a7.31,7.31,0,0,1-.65.82c-.41.36-.82.36-1.29.71h0a6.1,6.1,0,0,0-.65-1.71h0a5,5,0,0,0-3.35-2.41l-.59-.35c-.3,0,0-.41,0-.47a5.39,5.39,0,0,0,1.88-.41c.59-.42.88-1.71,0-1.77a9.28,9.28,0,0,1-2.12-.59c-.35,0-.53-.7-1.06-.88a2.32,2.32,0,0,0-1.11,0h-.77a2,2,0,0,1,1.53-.71c-.59,0-.41-1.06-.94-1.29a2.8,2.8,0,0,0-1,0s0-1.24-.77-1.53-.58,0-.58.35.7.53.82,1.53h-.35a1.61,1.61,0,0,0-.77-1.29c-.47-.24-.59,0-.59.35s.65.47.83,1.3l-.47.41c-.89,0-1.12-.89-1.36-.89s-.64,0-.47.53A2.48,2.48,0,0,0,38,38.9l-.3.29c-1.06,0-1.29-.88-1.53-.94s-.64,0-.47.53,1.36.82,1.59.88,0,.53,0,.71c-.82,0-2.29.35-2,1.29s1.24-.59,2.12,0a2.85,2.85,0,0,0,1.76,1.06,3.2,3.2,0,0,1,.53,1.12,8.31,8.31,0,0,0,1.24,2.06c.53.7,1.06,1.47,1.59,2.12a1.16,1.16,0,0,1,0,.64,26.17,26.17,0,0,1-3.12,2.65c-.77.65-7.83,5.89-8.71,8a4.7,4.7,0,0,0,0,1.83,1.42,1.42,0,0,1-1.41,0c-.47-.53.47-1.06,0-1.77a.68.68,0,0,0-.77,0c-.53,0-.64,1.18-.41,1.77s.36.41,0,.53-.41,0-.41-.53a.62.62,0,0,0,0,.59c0,.52.77.52.94.64s-.35,0-.59,0,0,.77,0,.77.89-.3,1.18-.36,0,.42-.53.53c.71.77,1.35-.58,2.12-.47s2.47,2.06,2.06,3.59a1,1,0,0,1,0,.35c-.53.59-1.3,1-1.88,1.59s1.11,5.12.94,7.42c0,.88.76.7,1.29,2.17a1.72,1.72,0,0,0-1.41.53h0a1,1,0,0,0,0,.53,1.18,1.18,0,1,0,2.35,0h0a2.13,2.13,0,0,1,.94,0l1,.53a10.87,10.87,0,0,1-9.47,1.24s-2.65-.83-1.88-3.12a1.29,1.29,0,0,1,.47-.59,1.17,1.17,0,0,0,.53.77,1.63,1.63,0,0,0,.76,0,1.36,1.36,0,0,0,1.36-1.3,1.22,1.22,0,0,0-.41-.88h0a2.31,2.31,0,0,0-1.89,0,2.47,2.47,0,0,0-1.76,3,2.19,2.19,0,0,0,.12.33s-1.71-.35-2.36.41a.86.86,0,0,0,0,.59h0a1.19,1.19,0,0,0,0,.53,1,1,0,0,0,.83.41.88.88,0,0,0,.76-.35h.59a7.78,7.78,0,0,0,5.88,2.18s0,1.76,1.3,2.06h0a.65.65,0,0,0,.64-.59.58.58,0,0,0-.58-.59h-.06a2.13,2.13,0,0,1,0-.94,15.06,15.06,0,0,0,6.47-2.53,13.35,13.35,0,0,0,2.94.53s0,.41-.65.47-1,0-1,.29,0,.36.77.36,0,.35.53.7.41,0,0,.47-.77.41-.59.89,0,.58,1.29.41c0,0,.36,0,0,.29s-.53.59.41,1a.89.89,0,0,0,1.18-.29s0-.3.53,0a2.62,2.62,0,0,0,3.47-.59s0-.29.41,0a6.2,6.2,0,0,0,4.42,1.47,1.23,1.23,0,0,0,1.7.37,1.21,1.21,0,0,0,.53-.72,6.93,6.93,0,0,0,3.36-1.06l1.11-.65a1.71,1.71,0,0,0,1.71,1.59,1.66,1.66,0,0,0,1.71-1.59h0a1.6,1.6,0,0,0-1.42-1.59M48.65,70.73H47.54a.36.36,0,0,0,0,.35h.29s-.35.35-.53.35a1.52,1.52,0,0,1-.76-.64h0a2.85,2.85,0,0,0-1.3,0c0-.83,2.41-.3,2.47,0a2.49,2.49,0,0,1,.77,0h0m35.3,1.94h0a5.48,5.48,0,0,1-1.41-.65,1,1,0,0,0-.89,0h0c-.35,0-.53.53-.76.71h1a2,2,0,0,1,1,.35,2.58,2.58,0,0,0,1.35.41,1.2,1.2,0,0,0-.29.47m9.59-27.71c0-.65,1.12-1.47,1.12-1.82S94,43.6,94,43a1.35,1.35,0,0,1,1.15-1.53,1.21,1.21,0,0,1,.38,0,2.74,2.74,0,0,1,1.35,1l.41.47a15.48,15.48,0,0,1,2.41,5.17,50.24,50.24,0,0,1,.42,22.36,20.87,20.87,0,0,1-.65,2.59c1.7-14.88.76-18.59.47-18.53s-.53,1.82-1.35,1.29,1.94-3.76.82-5.59c-.3-.29-.47.41-.94.3s.64-3.24,0-3.53-1.12-.36-1.12-1.42.29-.88,0-1.29,0,0-.59,0,0-1.18-.29-1.59-.53.35-.83,0,0-.7,0-.88-1.29.59-1.11,1.35.58.71.53,1.18-.53.88-.65,1.06c-.71,1.65.53,1.94.35,2.53s-.59.41-.94.29-.59-1.65-.41-2.23m-2.24,3.17h.77a1.67,1.67,0,0,1,.64-.29h0a3.65,3.65,0,0,1-1.29.65A1.72,1.72,0,0,1,89.37,49h1.94M77.07,43.37h0a3.72,3.72,0,0,0-2.82,0,5.45,5.45,0,0,0-1.24,1,4.16,4.16,0,0,1,3-1.82c1.18,0,1.3.52,1.24.64m4.17,5.18a2.26,2.26,0,0,1-1.23,1.18,2.84,2.84,0,0,1-2.3-.77,8.18,8.18,0,0,0,1.89.35,2.52,2.52,0,0,0,1.64-.82h0m1.77,16.77A3.34,3.34,0,0,0,86,64.73h0s0,.76-1.17,1a3.87,3.87,0,0,1-3.18-1.53,9.2,9.2,0,0,0,1.35.88M78,61.67h0V62h0v.47a1.66,1.66,0,0,1,0,1.12H76.89v-.47h.36a7,7,0,0,1,0-1.83h0M75,58.72h0a1.18,1.18,0,0,1,.59,0h.65a2,2,0,0,1,.41.83h0a5.85,5.85,0,0,0,.41.88s0,.65-.35.59h0a1.53,1.53,0,0,1-.94-1.77h0s0,.3-.41.3a1,1,0,0,1,.47-.77M53.89,60.67A7.11,7.11,0,0,0,55.24,56a8.22,8.22,0,0,0-2.06-5.18.68.68,0,0,1,0-.59.48.48,0,0,1,.3-.41l1.7-1.06h.36a3.47,3.47,0,0,0,2.23.77h.65A6,6,0,0,0,60.07,49l.94-.35h0a8.81,8.81,0,0,1,6.94,0h0l.94.41a6.5,6.5,0,0,0,1.65.59h.65a3.59,3.59,0,0,0,2.23-.77h.71l1.71,1.06a.58.58,0,0,1,0,.41.68.68,0,0,1,0,.59A8.18,8.18,0,0,0,73.78,56a7.61,7.61,0,0,0,1.35,4.71A5.36,5.36,0,0,1,69.78,69c-.36,0-3.36,0-4.42,1.88h0l-.64,1.06h0l-.65-1.06h0C63,69,60,69,59.66,69a5.89,5.89,0,0,1-5.36-2.35,5.52,5.52,0,0,1,0-5.88m-.94-3.24a1.85,1.85,0,0,1,.41,1.23v3H51.6A5,5,0,0,0,52,61a1,1,0,0,1,0-.59h.53c.11,0-.41-.88,0-1.35s0-2.12,0-2.3m0-2.17c-.3,0-.36-1.24-1.94-.94a2.27,2.27,0,0,1-2.06,0c2.29-1.24,4.17,0,4,1M39.18,42c-.35-.77.94-1.83,1.3-1.94a4.34,4.34,0,0,1,2.11.29H44c.88,0,.64.71.47.82s-1.12-.35-1.77-.47a10.14,10.14,0,0,1-1.35,0c-.41,0-.71-.29-1.06,0a.9.9,0,0,0-.47.89c0,.29-.41.47-.59,0m.83,0c1,.35,1.11-.89,1.35-.59s-.59,1.35-1.35.59m1.88,2.64a12,12,0,0,1,4.06.65h0a3.68,3.68,0,0,1,1.41,1.94,11.79,11.79,0,0,0-2.82-1.29c-1.06-.36-2.3-.53-2.77-1.36M34,76.73h0l0,.35s0,.53.35.71h-.41c-.3,0-.36-.65-.41-.89a.9.9,0,0,0-.53-.82c.64-.41,1.64.59,1.76.65h0l.47.35h-.53"/><path class="cls-17" d="M143.55,242.29a11.34,11.34,0,0,1-4.59,1.06c-3.7,0-5.41-2.48-5.41-6.24a5.3,5.3,0,0,1,5.89-5.88,6.88,6.88,0,0,1,4.05,1.05L142.44,234a5.93,5.93,0,0,0-3-.71c-2.18,0-3.24,1.59-3.24,3.95s1.06,4.29,3.18,4.29a5.29,5.29,0,0,0,2.11-.41v-2.18h-1.64v-1.7h4.06Z"/><path class="cls-17" d="M153.56,238.87a4.24,4.24,0,1,1-8.42,1,4.18,4.18,0,0,1,0-1,4,4,0,0,1,3.56-4.39,4.28,4.28,0,0,1,.62,0,4.07,4.07,0,0,1,4.25,3.86,5,5,0,0,1,0,.55m-2.48,0c0-2.06-.64-2.76-1.76-2.76s-1.71.7-1.71,2.76.53,2.83,1.71,2.83,1.76-.77,1.76-2.83"/><path class="cls-17" d="M157.5,235.46a3.11,3.11,0,0,1,2.35-1c2.12,0,3.65,1.41,3.65,4.41a4,4,0,0,1-3.5,4.45l-.44,0a3.14,3.14,0,0,1-2.59-1.18l-.41,1h-1.3V231.4h2.24v4.06Zm0,5.36a2.13,2.13,0,0,0,1.59.88c1,0,1.82-.77,1.82-2.83s-.65-2.76-1.77-2.76a2.47,2.47,0,0,0-1.64.7Z"/><path class="cls-17" d="M166.09,243.17v-6.88h-1v-1.48h3.35v8.54Zm0-11.77h2.41v2.06h-2.41Z"/><path class="cls-17" d="M172.68,239.52a2,2,0,0,0,1.85,2.14,2.13,2.13,0,0,0,.44,0,6.65,6.65,0,0,0,2.65-.77l.41,1.65a7.82,7.82,0,0,1-3.35.83,4.07,4.07,0,0,1-4.42-3.67,4.38,4.38,0,0,1,0-.81,3.88,3.88,0,0,1,3.3-4.38,3.72,3.72,0,0,1,.88,0,3.65,3.65,0,0,1,3.84,3.44,3.2,3.2,0,0,1,0,.62v1Zm1.64-3.41c-1.17,0-1.64,1.06-1.64,2.06H176c0-1.12-.35-2.06-1.65-2.06"/><path class="cls-17" d="M185.15,236.52a3.51,3.51,0,0,0-1.12,0,2.89,2.89,0,0,0-1.65.53v6.24H180v-8.65h1.65v1.12h0a2.41,2.41,0,0,1,2.12-1.3h1v1.94"/><path class="cls-17" d="M192.15,243.17v-5.06c0-1.3-.53-1.94-1.65-1.94a3.16,3.16,0,0,0-1.53.53v6.47h-2.41v-8.53h1.65l.35.94a3.84,3.84,0,0,1,2.83-1.12c2.29,0,3.17,1.24,3.17,3.41v5.3Z"/><path class="cls-17" d="M204.56,238.87a4.23,4.23,0,1,1-8.41,1,4.18,4.18,0,0,1,0-1,4.23,4.23,0,0,1,8.41-1,4.1,4.1,0,0,1,0,1m-2.47,0c0-2.06-.64-2.76-1.76-2.76s-1.71.7-1.71,2.76.59,2.83,1.71,2.83,1.76-.77,1.76-2.83"/><path class="cls-17" d="M216.33,235.29a7,7,0,0,1,0-1.59v-2.59h2.41v11.76h-2.41v-.94a2.87,2.87,0,0,1-2.35,1.12c-2.06,0-3.65-1.41-3.65-4.47a3.89,3.89,0,0,1,3.32-4.38,4.19,4.19,0,0,1,.5,0,2.9,2.9,0,0,1,2.24.82m0,1.3a2.8,2.8,0,0,0-1.59-.42c-1.12,0-1.88.71-1.88,2.71s.7,2.82,1.82,2.82a2.27,2.27,0,0,0,1.65-.76Z"/><path class="cls-17" d="M222.57,239.52c0,1.35.76,2.12,2.29,2.12a6.38,6.38,0,0,0,2.59-.77l.47,1.65a8,8,0,0,1-3.35.83,4.07,4.07,0,0,1-4.42-3.67,3.66,3.66,0,0,1,0-.81,3.86,3.86,0,0,1,3.3-4.38,4.15,4.15,0,0,1,4.66,3.35,3.11,3.11,0,0,1,0,.68v1Zm1.64-3.41c-1.17,0-1.64,1.06-1.64,2.06h3.23c0-1.12-.35-2.06-1.59-2.06"/><path class="cls-17" d="M239,243.35c-3.47,0-5.29-2.24-5.29-5.89s1.82-5.88,5.29-5.88a7.82,7.82,0,0,1,4.18,1l-.88,1.82a5.42,5.42,0,0,0-3.06-.82c-2,0-3.06,1.47-3.06,4.06s1.06,4.18,3.06,4.18a5.93,5.93,0,0,0,3.23-1.06l.77,1.82a7.86,7.86,0,0,1-4.24,1.24"/><path class="cls-17" d="M244.87,243.17V231.4h2.41v3.18a7,7,0,0,1,0,1.29,3,3,0,0,1,2.53-1.11c2.59,0,3.29,1.23,3.29,3.41v5.29h-2.65V238.4a1.19,1.19,0,0,0,0-.53,1.28,1.28,0,0,0-1.47-1.41,3.2,3.2,0,0,0-1.58.53v6.47Z"/><path class="cls-17" d="M255.57,243.17v-6.88h-1.06v-1.48h3.42v8.54Zm0-11.77H258v2.06h-2.42Z"/><path class="cls-17" d="M260.1,240.93v-9.82h2.36v9.65c0,.76.47.82,1.41.82v1.65h-1.3c-1.82,0-2.47-.94-2.47-2.41"/><path class="cls-17" d="M267.52,239.52a2,2,0,0,0,1.85,2.14,2.13,2.13,0,0,0,.44,0,6.65,6.65,0,0,0,2.65-.77l.41,1.65a7.82,7.82,0,0,1-3.35.83,4.07,4.07,0,0,1-4.42-3.67,4.38,4.38,0,0,1,0-.81,3.88,3.88,0,0,1,3.31-4.38,4.15,4.15,0,0,1,4.66,3.35,3.11,3.11,0,0,1,0,.68v1Zm1.64-3.41c-1.17,0-1.64,1.06-1.64,2.06h3.29c0-1.12-.41-2.06-1.65-2.06"/><path class="cls-17" d="M148,53.37V40.72h0a12.07,12.07,0,0,1-.76,3.65l-2.24,9h-4.47l-2.53-9a32.55,32.55,0,0,0-.76-3.65h0V53.37H134l.59-14.94h5.3s1.7,7.53,2.64,12.35h0c1.06-4.82,3.06-12.35,3.06-12.35h5.12l.59,14.94Z"/><path class="cls-17" d="M155,53.37v-9h-1.3V42.55H158V53.43Zm0-15.3H158v2.65H155Z"/><path class="cls-17" d="M167.79,53.37V46.9c0-1.59-.64-2.41-2.06-2.41a3.5,3.5,0,0,0-1.94.7v8.18h-3.06V42.49h2.06l.47,1.29a4.77,4.77,0,0,1,3.59-1.47c2.88,0,4,1.59,4,4.35v6.71Z"/><path class="cls-17" d="M174.26,53.37v-9H173V42.55h4.3V53.43Zm0-15.3h3v2.65h-3Z"/><path class="cls-17" d="M182.62,45.37c0,1.71,4.94,1.18,4.94,4.71,0,2-1.53,3.53-4.47,3.53a7.63,7.63,0,0,1-3.41-.83l.64-2a5.54,5.54,0,0,0,2.65.77c1,0,1.71-.53,1.71-1.24,0-1.94-4.88-1.29-4.88-5,0-1.59,1.29-3,4.35-3a8.44,8.44,0,0,1,3.18.53L186.91,45a6.47,6.47,0,0,0-2.7-.59C183.15,44.37,182.62,44.78,182.62,45.37Z"/><path class="cls-17" d="M194.15,53.61c-2.06,0-3.35-1-3.35-3.65V44.37h-1.71V42.31h1.71V40.43l3-.89v2.77h3v2.06h-3v5.35c0,.77.35,1.24,1.17,1.24a4.29,4.29,0,0,0,1.77-.41l.41,2.11A5.84,5.84,0,0,1,194.15,53.61Z"/><path class="cls-17" d="M201.15,48.72c0,1.71,1,2.65,2.88,2.65a8.18,8.18,0,0,0,3.36-.88l.59,2.06a10.07,10.07,0,0,1-4.3,1.06,5.17,5.17,0,0,1-5.88-4.36,4.91,4.91,0,0,1,0-1.53,4.93,4.93,0,0,1,3.88-5.81,4.83,4.83,0,0,1,1.47-.07,4.58,4.58,0,0,1,4.79,4.38,3.68,3.68,0,0,1,0,.74v1.29Zm2.12-4.29c-1.53,0-2.12,1.29-2.12,2.59h4.12c0-1.42-.41-2.65-2-2.65Z"/><path class="cls-17" d="M216.92,45a4.76,4.76,0,0,0-1.41,0,3.39,3.39,0,0,0-2.06.7v7.89h-3V42.49h2.12l.35,1.47h0a3,3,0,0,1,2.7-1.65,5.65,5.65,0,0,1,1.3,0Z"/><path class="cls-17" d="M219.68,53.37v-9h-1.35V42.55h4.35V53.43Zm0-15.3h3.06v2.65h-3.06Z"/><path class="cls-17" d="M235.63,47.9a5,5,0,0,1-5.36,5.88c-3.41,0-5.29-1.94-5.29-5.88a5.05,5.05,0,0,1,4.16-5.82,4.27,4.27,0,0,1,1.13-.06,5.17,5.17,0,0,1,5.4,4.94A4.9,4.9,0,0,1,235.63,47.9Zm-3.12,0c0-2.59-.82-3.53-2.24-3.53s-2.17.94-2.17,3.53.7,3.59,2.17,3.59S232.51,50.25,232.51,47.9Z"/><path class="cls-17" d="M250.28,43.37a6.7,6.7,0,0,1,0-2v-3.3h3v15.3h-2.47l-.36-1.18a3.78,3.78,0,0,1-3,1.42c-2.53,0-4.64-1.77-4.64-5.89a5,5,0,0,1,4-5.8,4.69,4.69,0,0,1,.84-.08A3.53,3.53,0,0,1,250.28,43.37Zm0,1.65a3.84,3.84,0,0,0-2.06-.53c-1.47,0-2.35.88-2.35,3.41s.88,3.59,2.29,3.59a3.1,3.1,0,0,0,2.12-.94Z"/><path class="cls-17" d="M258.34,48.72c0,1.71,1.06,2.65,2.94,2.65a8.13,8.13,0,0,0,3.35-.88l.53,2.06a9.73,9.73,0,0,1-4.23,1.06,5.18,5.18,0,0,1-5.62-4.7,4.76,4.76,0,0,1,0-1.19,5,5,0,0,1,3.88-5.81,5.14,5.14,0,0,1,1.41-.07,4.58,4.58,0,0,1,4.79,4.38,3.68,3.68,0,0,1,0,.74v1.29Zm2.18-4.29c-1.53,0-2.18,1.29-2.18,2.59h4.18c0-1.42-.48-2.65-2-2.65Z"/><path class="cls-17" d="M134.49,74.26v-15h9.59V62h-6.59v3.71h5.06v2.58h-5.06v3.83h6.59v2.41Z"/><path class="cls-17" d="M152.79,64.26a6.52,6.52,0,0,1-.29-2V59h3.06v15.3h-2.48L152.73,73a3.56,3.56,0,0,1-3,1.47c-2.59,0-4.65-1.82-4.65-5.88a5,5,0,0,1,4-5.81,4.8,4.8,0,0,1,.85-.07A3.49,3.49,0,0,1,152.79,64.26Zm-.29,1.58a4.51,4.51,0,0,0-2.06-.53c-1.42,0-2.3,1-2.3,3.48s.83,3.58,2.3,3.58a2.82,2.82,0,0,0,2.06-.94Z"/><path class="cls-17" d="M166.15,74.26l-.42-1.36a4.67,4.67,0,0,1-3.59,1.59C159.32,74.49,158,73,158,70V63.37h3.06V70c0,1.71.58,2.3,1.94,2.3a3.8,3.8,0,0,0,2.06-.65V63.37h3.06V74.26Z"/><path class="cls-17" d="M179.74,73.79a8.89,8.89,0,0,1-4,1,5,5,0,0,1-5.47-4.49,5.5,5.5,0,0,1,.06-1.4,5.07,5.07,0,0,1,4.15-5.83,4.84,4.84,0,0,1,1.26,0,7.31,7.31,0,0,1,3.89.88l-.77,1.94A5.87,5.87,0,0,0,176,65.2c-1.53,0-2.53,1-2.53,3.47s.94,3.41,2.59,3.41a6.57,6.57,0,0,0,3.06-.82Z"/><path class="cls-17" d="M188.74,74.26l-.47-1.3a4,4,0,0,1-3.3,1.53,3.46,3.46,0,0,1-3.75-3.16,2.29,2.29,0,0,1,0-.37c0-2,1.53-3.17,4.23-3.17h2.42V67.2c0-1.36-.83-1.83-2-1.83a8.24,8.24,0,0,0-3.41.77l-.76-2.06a11.83,11.83,0,0,1,4.47-.88c3.23,0,4.65,1.41,4.65,4.17v6.89Zm-.88-4.77H186c-1.23,0-1.82.59-1.82,1.41a1.54,1.54,0,0,0,1.7,1.59,3.47,3.47,0,0,0,2-.7Z"/><path class="cls-17" d="M202.45,73.79a8.78,8.78,0,0,1-3.89,1,5,5,0,0,1-5.47-4.49,5.5,5.5,0,0,1,.06-1.4,5.06,5.06,0,0,1,4.15-5.82,4.84,4.84,0,0,1,1.2-.06,7.31,7.31,0,0,1,3.89.88l-.77,1.94a5.87,5.87,0,0,0-2.82-.64c-1.59,0-2.59,1-2.59,3.47s.94,3.41,2.59,3.41a6.57,6.57,0,0,0,3.06-.82Z"/><path class="cls-17" d="M205.39,74.26V65.49L204,65.2V63.37h4.36V74.26Zm0-15.3h3.06v2.65h-3.06Z"/><path class="cls-17" d="M221.33,68.79a5,5,0,0,1-4,5.82,5,5,0,0,1-1.33.06c-3.41,0-5.3-2-5.3-5.88a5.07,5.07,0,0,1,4.5-5.57,4.26,4.26,0,0,1,.8,0,5.16,5.16,0,0,1,5.36,5A4.16,4.16,0,0,1,221.33,68.79ZM213.21,62V60.31l5.89-1.53.41,2.12Zm5,7.06c0-2.59-.82-3.53-2.23-3.53s-2.18.94-2.18,3.53.71,3.53,2.18,3.53,2.23-1.24,2.23-3.82Z"/><path class="cls-17" d="M230.63,74.26V67.9c0-1.64-.65-2.41-2.06-2.41a4.19,4.19,0,0,0-2,.65v8.23h-3v-11h2.06l.47,1.24a4.82,4.82,0,0,1,3.59-1.41c2.88,0,4,1.58,4,4.35v6.71Z"/></svg>